# WaveFront *.obj file (generated by CINEMA 4D)

mtllib ./otherpoly02.mtl

v -29.20306205749512 0.06883877515793 30.14357948303223
v -29.20306205749512 11.87836360931396 30.14357948303223
v 29.79693794250488 0.06883877515793 30.14357948303223
v 29.79693794250488 11.87836360931396 30.14357948303223
v 29.79693794250488 0.06883877515793 -28.85642051696777
v 29.79693794250488 11.87836360931396 -28.85642051696777
v -29.20306205749512 0.06883877515793 -28.85642051696777
v -29.20306205749512 11.87836360931396 -28.85642051696777
v 0.30914750695229 54.73703002929688 0.72604668140411
v 0.36082822084427 68.61383056640625 0.75732153654099
v -9.95444107055664 54.73703002929688 17.68628692626953
v -10.11640739440918 59.36262893676758 17.95968627929688
v -11.74831008911133 63.98822784423828 20.71432113647461
v -13.23889923095703 68.61383056640625 23.23042106628418
v 9.86535167694092 54.73703002929688 18.09469413757324
v 10.02107715606689 59.36262893676758 18.3746395111084
v 11.59009265899658 63.98822784423828 21.19523429870605
v 13.02323913574219 68.61383056640625 23.77157974243164
v 20.12894058227539 54.73703002929688 1.13445484638214
v 20.44918060302734 59.36262893676758 1.14254355430603
v 23.6757755279541 63.98822784423828 1.22404098510742
v 26.62296676635742 68.61383056640625 1.29848122596741
v 10.57273578643799 54.73703002929688 -16.23419380187988
v 10.73979949951172 59.36262893676758 -16.50450706481934
v 12.42305755615234 63.98822784423828 -19.22806549072266
v 13.96055507659912 68.61383056640625 -21.71577644348145
v -9.24705696105957 54.73703002929688 -16.64260101318359
v -9.39768505096436 59.36262893676758 -16.91946220397949
v -10.91534423828125 63.98822784423828 -19.7089786529541
v -12.30158233642578 68.61383056640625 -22.25693702697754
v -19.51064491271973 54.73703002929688 0.31763848662376
v -19.8257884979248 59.36262893676758 0.31263434886932
v -23.00102806091309 63.98822784423828 0.26221510767937
v -25.90130996704102 68.61383056640625 0.21616187691689
v 0.30914753675461 67.03717041015625 0.72604668140411
v 0.35248690843582 80.91397094726562 0.75227373838425
v -8.29788589477539 67.03717041015625 14.94888401031494
v -8.43371105194092 71.66276550292969 15.17815685272217
v -9.80222225189209 76.28836822509766 17.48818969726562
v -11.0522289276123 80.91397094726562 19.59818840026855
v 8.32296943664551 67.03717041015625 15.29137516021729
v 8.4535608291626 71.66276550292969 15.52613735198975
v 9.76933479309082 76.28836822509766 17.89148330688477
v 10.97117042541504 80.91397094726562 20.05200386047363
v 16.93000221252441 67.03717041015625 1.0685373544693
v 17.19855690002441 71.66276550292969 1.07532048225403
v 19.90437507629395 76.28836822509766 1.14366412162781
v 22.37588500976562 80.91397094726562 1.20608961582184
v 8.91618061065674 67.03717041015625 -13.49679088592529
v 9.05628108978271 71.66276550292969 -13.72347640991211
v 10.46785926818848 76.28836822509766 -16.00744819641113
v 11.7572021484375 80.91397094726562 -18.09364128112793
v -7.70467472076416 67.03717041015625 -13.83928203582764
v -7.83099126815796 71.66276550292969 -14.07145690917969
v -9.10369873046875 76.28836822509766 -16.41074180603027
v -10.26619625091553 80.91397094726562 -18.54745674133301
v -16.31170845031738 67.03717041015625 0.38355603814125
v -16.57598686218262 71.66276550292969 0.37935957312584
v -19.23873901367188 76.28836822509766 0.3370780646801
v -21.67091178894043 80.91397094726562 0.29845786094666
v 0.30914753675461 79.39412689208984 0.72604668140411
v 0.34370118379593 93.27092742919922 0.74695700407028
v -6.55307579040527 79.39412689208984 12.06564331054688
v -6.66136693954468 84.01972961425781 12.24843788146973
v -7.75245475769043 88.64532470703125 14.09018421173096
v -8.74906063079834 93.27092742919922 15.77244567871094
v 6.69841480255127 79.39412689208984 12.33870506286621
v 6.80253267288208 84.01972961425781 12.52587604522705
v 7.85157442092896 88.64532470703125 14.41172218322754
v 8.80977439880371 93.27092742919922 16.13426399230957
v 13.56063842773438 79.39412689208984 0.99910795688629
v 13.77475070953369 84.01972961425781 1.00451600551605
v 15.93204879760742 88.64532470703125 1.05900514125824
v 17.90253639221191 93.27092742919922 1.10877573490143
v 7.17137098312378 79.39412689208984 -10.61355018615723
v 7.2830696105957 84.01972961425781 -10.79428195953369
v 8.4084939956665 88.64532470703125 -12.61524963378906
v 9.43646335601807 93.27092742919922 -14.27853107452393
v -6.08011960983276 79.39412689208984 -10.88661193847656
v -6.18083000183105 84.01972961425781 -11.07172012329102
v -7.19553470611572 88.64532470703125 -12.93678760528564
v -8.1223726272583 93.27092742919922 -14.64035034179688
v -12.94234275817871 79.39412689208984 0.45298543572426
v -13.15304851531982 84.01972961425781 0.4496396780014
v -15.27600955963135 88.64532470703125 0.41592940688133
v -17.21513366699219 93.27092742919922 0.38513830304146
v 0.30914753675461 91.75109100341797 0.72604668140411
v 0.33491545915604 105.62789154052734 0.74164032936096
v -4.80826568603516 91.75109100341797 9.18240261077881
v -4.88902235031128 96.37668609619141 9.31871891021729
v -5.70268726348877 101.00228881835938 10.69217777252197
v -6.44589281082153 105.62789154052734 11.946702003479
v 5.07386016845703 91.75109100341797 9.38603496551514
v 5.15150451660156 96.37668609619141 9.52561473846436
v 5.93381357192993 101.00228881835938 10.931960105896
v 6.6483793258667 105.62789154052734 12.21652317047119
v 10.19127368927002 91.75109100341797 0.92967855930328
v 10.35094547271729 96.37668609619141 0.93371152877808
v 11.95972156524658 101.00228881835938 0.97434610128403
v 13.4291877746582 105.62789154052734 1.01146185398102
v 5.42656087875366 91.75109100341797 -7.73030948638916
v 5.50985908508301 96.37668609619141 -7.86508798599243
v 6.34912919998169 101.00228881835938 -9.22305011749268
v 7.11572360992432 105.62789154052734 -10.46342086791992
v -4.45556497573853 91.75109100341797 -7.93394136428833
v -4.53066825866699 96.37668609619141 -8.07198429107666
v -5.28737115859985 101.00228881835938 -9.46283340454102
v -5.97854804992676 105.62789154052734 -10.73324298858643
v -9.57297801971436 91.75109100341797 0.52241480350494
v -9.73010921478271 96.37668609619141 0.51991975307465
v -11.3132791519165 101.00228881835938 0.49478077888489
v -12.75935649871826 105.62789154052734 0.47181871533394
v 0.30510705709457 11.64143753051758 0.72432863712311
v 0.30510705709457 18.72143745422363 0.72432863712311
v 28.62510681152344 11.64143753051758 0.72432863712311
v 28.62510681152344 18.72143745422363 0.72432863712311
v 14.46510696411133 11.64143753051758 -23.80150985717773
v 14.46510696411133 18.72143745422363 -23.80150985717773
v -13.85489273071289 11.64143753051758 -23.80150985717773
v -13.85489273071289 18.72143745422363 -23.80150985717773
v -28.014892578125 11.64143753051758 0.72432863712311
v -28.014892578125 18.72143745422363 0.72432863712311
v -13.85489273071289 11.64143753051758 25.25016784667969
v -13.85489273071289 18.72143745422363 25.25016784667969
v 14.46510696411133 11.64143753051758 25.25016784667969
v 14.46510696411133 18.72143745422363 25.25016784667969
v 0.30510705709457 22.26143836975098 0.72432863712311
v 0.30510705709457 29.34143829345703 0.72432863712311
v 25.7931079864502 22.26143836975098 0.72432863712311
v 25.7931079864502 29.34143829345703 0.72432863712311
v 13.04910659790039 22.26143836975098 -21.34892654418945
v 13.04910659790039 29.34143829345703 -21.34892654418945
v -12.43889331817627 22.26143836975098 -21.34892654418945
v -12.43889331817627 29.34143829345703 -21.34892654418945
v -25.18289375305176 22.26143836975098 0.72432863712311
v -25.18289375305176 29.34143829345703 0.72432863712311
v -12.43889331817627 22.26143836975098 22.79758453369141
v -12.43889331817627 29.34143829345703 22.79758453369141
v 13.04910659790039 22.26143836975098 22.79758453369141
v 13.04910659790039 29.34143829345703 22.79758453369141
v 0.30510705709457 32.88143920898438 0.72432863712311
v 0.30510705709457 39.9614372253418 0.72432863712311
v 22.96110725402832 32.88143920898438 0.72432863712311
v 22.96110725402832 39.9614372253418 0.72432863712311
v 11.63310718536377 32.88143920898438 -18.89634323120117
v 11.63310718536377 39.9614372253418 -18.89634323120117
v -11.02289295196533 32.88143920898438 -18.89634323120117
v -11.02289295196533 39.9614372253418 -18.89634323120117
v -22.35089302062988 32.88143920898438 0.72432863712311
v -22.35089302062988 39.9614372253418 0.72432863712311
v -11.02289295196533 32.88143920898438 20.34499931335449
v -11.02289295196533 39.9614372253418 20.34499931335449
v 11.63310718536377 32.88143920898438 20.34499931335449
v 11.63310718536377 39.9614372253418 20.34499931335449
v 0.30510705709457 43.50143814086914 0.72432863712311
v 0.30510705709457 50.58143615722656 0.72432863712311
v 20.12910652160645 43.50143814086914 0.72432863712311
v 20.12910652160645 50.58143615722656 0.72432863712311
v 10.21710681915283 43.50143814086914 -16.44375801086426
v 10.21710681915283 50.58143615722656 -16.44375801086426
v -9.60689258575439 43.50143814086914 -16.44375801086426
v -9.60689258575439 50.58143615722656 -16.44375801086426
v -19.51889228820801 43.50143814086914 0.72432863712311
v -19.51889228820801 50.58143615722656 0.72432863712311
v -9.60689258575439 43.50143814086914 17.89241600036621
v -9.60689258575439 50.58143615722656 17.89241600036621
v 10.21710681915283 43.50143814086914 17.89241600036621
v 10.21710681915283 50.58143615722656 17.89241600036621
# 168 vertices

vn 0 0 1
vn 1 0 0
vn 0 0 -1
vn -1 0 0
vn 0 1 0
vn 0 -1 0
vn 0 0 0
vn -0.02056495659053 -0.05970765277743 0.99800401926041
vn -0.01967512816191 -0.29653131961823 0.95482045412064
vn -0.01784995757043 -0.4993000626564 0.86624526977539
vn -0.01804796233773 -0.4822379052639 0.87585437297821
vn 0.85399794578552 -0.06002812087536 0.51680183410645
vn 0.81671822071075 -0.29781925678253 0.49424183368683
vn 0.74027073383331 -0.50131219625473 0.44797915220261
vn 0.74854922294617 -0.48422628641129 0.45298892259598
vn 0.87457937002182 -0.05970783159137 -0.48119220137596
vn 0.83673626184464 -0.29653140902519 -0.46037104725838
vn 0.7591153383255 -0.49930003285408 -0.4176641702652
vn 0.76753610372543 -0.48223784565926 -0.42229720950127
vn 0.02056574262679 -0.05906707048416 -0.99804216623306
vn 0.01969159580767 -0.29394438862801 -0.95561963319778
vn 0.01789774745703 -0.49525129795074 -0.86856538057327
vn 0.01809304021299 -0.47823837399483 -0.87804365158081
vn -0.85406315326691 -0.05874674394727 -0.51684129238129
vn -0.8180860877037 -0.29264533519745 -0.4950695335865
vn -0.74424135684967 -0.49321475625038 -0.45038205385208
vn -0.75229603052139 -0.47622722387314 -0.4552563726902
vn -0.87461268901825 -0.05906699225307 0.48121064901352
vn -0.83743667602539 -0.29394444823265 0.46075645089149
vn -0.76114857196808 -0.49525126814842 0.41878286004066
vn -0.76945471763611 -0.47823822498322 0.42335289716721
vn -0.02057580277324 -0.05009742826223 0.9985323548317
vn -0.01991436257958 -0.25614762306213 0.96643251180649
vn -0.01854879036546 -0.43516010046005 0.90016198158264
vn -0.01870485208929 -0.41912469267845 0.9077360033989
vn 0.85445487499237 -0.05036635324359 0.5170783996582
vn 0.82673060894012 -0.25732386112213 0.50030088424683
vn 0.76950311660767 -0.43705499172211 0.46566933393478
vn 0.77603447437286 -0.42098200321198 0.46962183713913
vn 0.87504231929779 -0.05009735375643 -0.4814470410347
vn 0.84691226482391 -0.25614759325981 -0.46596992015839
vn 0.78883755207062 -0.43516010046005 -0.43401727080345
vn 0.79547488689423 -0.41912472248077 -0.43766906857491
vn 0.02057638764381 -0.04955939948559 -0.99855917692184
vn 0.01992721296847 -0.25378710031509 -0.96705484390259
vn 0.0185865201056 -0.4313528239727 -0.90199184417725
vn 0.01874015852809 -0.41539418697357 -0.90944844484329
vn -0.85450083017349 -0.04929037392139 -0.51710617542267
vn -0.82779562473297 -0.25260284543037 -0.50094532966614
vn -0.77263468503952 -0.42944058775902 -0.46756440401077
vn -0.77896511554718 -0.41352117061615 -0.47139531373978
vn -0.87506580352783 -0.04955943673849 0.48145991563797
vn -0.84745764732361 -0.25378710031509 0.46626996994019
vn -0.79044109582901 -0.43135285377502 0.43489953875542
vn -0.79697549343109 -0.41539430618286 0.43849471211433
vn -0.02058525756001 -0.03995978832245 0.9989892244339
vn -0.0201426371932 -0.20993056893349 0.97750878334045
vn -0.01922352612019 -0.35960921645164 0.93290495872498
vn -0.01933382079005 -0.34539598226547 0.93825787305832
vn 0.85485005378723 -0.04017460718751 0.5173174738884
vn 0.8362889289856 -0.21094709634781 0.50608509778976
vn 0.79775124788284 -0.3612921833992 0.48276382684708
vn 0.80237174034119 -0.34703195095062 0.48555994033813
vn 0.87544268369675 -0.0399599224329 -0.4816672205925
vn 0.8566187620163 -0.20993059873581 -0.47131037712097
vn 0.81753116846085 -0.359609156847 -0.44980439543724
vn 0.82222205400467 -0.34539598226547 -0.45238536596298
vn 0.0205856077373 -0.03953038156033 -0.9990062713623
vn 0.02015159092844 -0.20789261162281 -0.97794407606125
vn 0.01925017684698 -0.35623261332512 -0.93419897556305
vn 0.01935856975615 -0.34211474657059 -0.93945872783661
vn -0.85487926006317 -0.03931552544236 -0.5173351764679
vn -0.83703380823135 -0.20687133073807 -0.50653594732285
vn -0.79996579885483 -0.35453912615776 -0.48410400748253
vn -0.80442702770233 -0.34046924114227 -0.48680374026299
vn -0.87545764446259 -0.03953029215336 0.48167550563812
vn -0.85700017213821 -0.20789264142513 0.4715202152729
vn -0.8186651468277 -0.35623264312744 0.45042833685875
vn -0.82327443361282 -0.3421146273613 0.45296439528465
vn -0.0205925386399 -0.02981012500823 0.9993434548378
vn -0.02033574134111 -0.16016593575478 0.98688060045242
vn -0.01980004832149 -0.27624636888504 0.96088290214539
vn -0.01986701413989 -0.26467764377594 0.96413224935532
vn 0.85515642166138 -0.02997043728828 0.51750290393829
vn 0.84438294172287 -0.16097696125507 0.51098328828812
vn 0.82191056013107 -0.27761879563332 0.49738401174545
vn 0.82471776008606 -0.2660019993782 0.49908274412155
vn 0.87575304508209 -0.02981008589268 -0.48183804750443
vn 0.86483156681061 -0.16016595065594 -0.47582900524139
vn 0.8420490026474 -0.27624648809433 -0.46329408884048
vn 0.8448965549469 -0.26467773318291 -0.46486079692841
vn 0.02059276588261 -0.0294894259423 -0.99935293197632
vn 0.02034113742411 -0.15854163467884 -0.98714274168015
vn 0.01981617882848 -0.27349662780762 -0.96166884899139
vn 0.01988184452057 -0.26202470064163 -0.96485632658005
vn -0.8551726937294 -0.02932913042605 -0.51751273870468
vn -0.84483152627945 -0.1577282845974 -0.51125478744507
vn -0.82325571775436 -0.27211907505989 -0.49819800257683
vn -0.82595700025558 -0.26069593429565 -0.49983268976212
vn -0.87576138973236 -0.02948950231075 0.48184263706207
vn -0.86506128311157 -0.15854160487652 0.47595542669296
vn -0.84273779392242 -0.27349653840065 0.46367305517197
vn -0.84553104639053 -0.26202470064163 0.46520993113518
vn 0.86602538824081 0 -0.49999997019768
vn -0.86602538824081 0 -0.49999997019768
vn -0.86602538824081 0 0.5
vn 0.86602538824081 0 0.5
vn 0.86602544784546 0 -0.49999997019768
vn -0.86602544784546 0 -0.49999997019768
vn 0.86602538824081 0 -0.5
vn -0.86602538824081 0 -0.5
vn 0.86602538824081 0 -0.49999997019768
vn -0.86602538824081 0 -0.49999997019768
vn -0.86602538824081 0 0.49999997019768
# 114 normals

vt 0 0 0
vt 0 1 0
vt 1 1 0
vt 1 0 0
vt 0.5 0.5 0
vt 0 0.5 0
vt 0.25 0.93301272392273 0
vt 0 0.33333337306976 0
vt 0.16666667163372 0.33333337306976 0
vt 0.16666667163372 0 0
vt 0 0.66666668653488 0
vt 0.16666667163372 0.66666668653488 0
vt 0.16666667163372 1 0
vt 1 0.5 0
vt 0.75 0.93301272392273 0
vt 0.33333334326744 0.33333337306976 0
vt 0.33333334326744 0 0
vt 0.33333334326744 0.66666668653488 0
vt 0.33333334326744 1 0
vt 0.5 0.33333337306976 0
vt 0.5 0 0
vt 0.5 0.66666668653488 0
vt 0.5 1 0
vt 0.75 0.06698727607727 0
vt 0.66666668653488 0.33333337306976 0
vt 0.66666668653488 0 0
vt 0.66666668653488 0.66666668653488 0
vt 0.66666668653488 1 0
vt 0.25 0.06698727607727 0
vt 0.83333331346512 0.33333337306976 0
vt 0.83333331346512 0 0
vt 0.83333331346512 0.66666668653488 0
vt 0.83333331346512 1 0
vt 1 0.33333337306976 0
vt 1 0.66666668653488 0
# 35 texture coordinates

o Nested
usemtl default
f 3/4/1 4/3/1 2/2/1 1/1/1
f 5/4/2 6/3/2 4/2/2 3/1/2
f 7/4/3 8/3/3 6/2/3 5/1/3
f 1/4/4 2/3/4 8/2/4 7/1/4
f 4/4/5 6/3/5 8/2/5 2/1/5
f 5/4/6 3/3/6 1/2/6 7/1/6
f 15/7/6 11/6/6 9/5/6
f 15/10/8 16/9/9 12/8/9 11/1/8
f 16/9/9 17/12/10 13/11/10 12/8/9
f 17/12/10 18/13/11 14/2/11 13/11/10
f 18/15/5 10/5/5 14/14/5
f 19/15/6 15/7/6 9/5/6
f 19/17/12 20/16/13 16/9/13 15/10/12
f 20/16/13 21/18/14 17/12/14 16/9/13
f 21/18/14 22/19/15 18/13/15 17/12/14
f 22/7/5 10/5/5 18/15/5
f 23/14/6 19/15/6 9/5/6
f 23/21/16 24/20/17 20/16/17 19/17/16
f 24/20/17 25/22/18 21/18/18 20/16/17
f 25/22/18 26/23/19 22/19/19 21/18/18
f 26/6/5 10/5/5 22/7/5
f 27/24/6 23/14/6 9/5/6
f 27/26/20 28/25/21 24/20/21 23/21/20
f 28/25/21 29/27/22 25/22/22 24/20/21
f 29/27/22 30/28/23 26/23/23 25/22/22
f 30/29/5 10/5/5 26/6/5
f 31/29/6 27/24/6 9/5/6
f 31/31/24 32/30/25 28/25/25 27/26/24
f 32/30/25 33/32/26 29/27/26 28/25/25
f 33/32/26 34/33/27 30/28/27 29/27/26
f 34/24/5 10/5/5 30/29/5
f 11/6/6 31/29/6 9/5/6
f 11/4/28 12/34/29 32/30/29 31/31/28
f 12/34/29 13/35/30 33/32/30 32/30/29
f 13/35/30 14/3/31 34/33/31 33/32/30
f 14/14/5 10/5/5 34/24/5
f 41/7/6 37/6/6 35/5/6
f 41/10/32 42/9/33 38/8/33 37/1/32
f 42/9/33 43/12/34 39/11/34 38/8/33
f 43/12/34 44/13/35 40/2/35 39/11/34
f 44/15/5 36/5/5 40/14/5
f 45/15/6 41/7/6 35/5/6
f 45/17/36 46/16/37 42/9/37 41/10/36
f 46/16/37 47/18/38 43/12/38 42/9/37
f 47/18/38 48/19/39 44/13/39 43/12/38
f 48/7/5 36/5/5 44/15/5
f 49/14/6 45/15/6 35/5/6
f 49/21/40 50/20/41 46/16/41 45/17/40
f 50/20/41 51/22/42 47/18/42 46/16/41
f 51/22/42 52/23/43 48/19/43 47/18/42
f 52/6/5 36/5/5 48/7/5
f 53/24/6 49/14/6 35/5/6
f 53/26/44 54/25/45 50/20/45 49/21/44
f 54/25/45 55/27/46 51/22/46 50/20/45
f 55/27/46 56/28/47 52/23/47 51/22/46
f 56/29/5 36/5/5 52/6/5
f 57/29/6 53/24/6 35/5/6
f 57/31/48 58/30/49 54/25/49 53/26/48
f 58/30/49 59/32/50 55/27/50 54/25/49
f 59/32/50 60/33/51 56/28/51 55/27/50
f 60/24/5 36/5/5 56/29/5
f 37/6/6 57/29/6 35/5/6
f 37/4/52 38/34/53 58/30/53 57/31/52
f 38/34/53 39/35/54 59/32/54 58/30/53
f 39/35/54 40/3/55 60/33/55 59/32/54
f 40/14/5 36/5/5 60/24/5
f 67/7/6 63/6/6 61/5/6
f 67/10/56 68/9/57 64/8/57 63/1/56
f 68/9/57 69/12/58 65/11/58 64/8/57
f 69/12/58 70/13/59 66/2/59 65/11/58
f 70/15/5 62/5/5 66/14/5
f 71/15/6 67/7/6 61/5/6
f 71/17/60 72/16/61 68/9/61 67/10/60
f 72/16/61 73/18/62 69/12/62 68/9/61
f 73/18/62 74/19/63 70/13/63 69/12/62
f 74/7/5 62/5/5 70/15/5
f 75/14/6 71/15/6 61/5/6
f 75/21/64 76/20/65 72/16/65 71/17/64
f 76/20/65 77/22/66 73/18/66 72/16/65
f 77/22/66 78/23/67 74/19/67 73/18/66
f 78/6/5 62/5/5 74/7/5
f 79/24/6 75/14/6 61/5/6
f 79/26/68 80/25/69 76/20/69 75/21/68
f 80/25/69 81/27/70 77/22/70 76/20/69
f 81/27/70 82/28/71 78/23/71 77/22/70
f 82/29/5 62/5/5 78/6/5
f 83/29/6 79/24/6 61/5/6
f 83/31/72 84/30/73 80/25/73 79/26/72
f 84/30/73 85/32/74 81/27/74 80/25/73
f 85/32/74 86/33/75 82/28/75 81/27/74
f 86/24/5 62/5/5 82/29/5
f 63/6/6 83/29/6 61/5/6
f 63/4/76 64/34/77 84/30/77 83/31/76
f 64/34/77 65/35/78 85/32/78 84/30/77
f 65/35/78 66/3/79 86/33/79 85/32/78
f 66/14/5 62/5/5 86/24/5
f 93/7/6 89/6/6 87/5/6
f 93/10/80 94/9/81 90/8/81 89/1/80
f 94/9/81 95/12/82 91/11/82 90/8/81
f 95/12/82 96/13/83 92/2/83 91/11/82
f 96/15/5 88/5/5 92/14/5
f 97/15/6 93/7/6 87/5/6
f 97/17/84 98/16/85 94/9/85 93/10/84
f 98/16/85 99/18/86 95/12/86 94/9/85
f 99/18/86 100/19/87 96/13/87 95/12/86
f 100/7/5 88/5/5 96/15/5
f 101/14/6 97/15/6 87/5/6
f 101/21/88 102/20/89 98/16/89 97/17/88
f 102/20/89 103/22/90 99/18/90 98/16/89
f 103/22/90 104/23/91 100/19/91 99/18/90
f 104/6/5 88/5/5 100/7/5
f 105/24/6 101/14/6 87/5/6
f 105/26/92 106/25/93 102/20/93 101/21/92
f 106/25/93 107/27/94 103/22/94 102/20/93
f 107/27/94 108/28/95 104/23/95 103/22/94
f 108/29/5 88/5/5 104/6/5
f 109/29/6 105/24/6 87/5/6
f 109/31/96 110/30/97 106/25/97 105/26/96
f 110/30/97 111/32/98 107/27/98 106/25/97
f 111/32/98 112/33/99 108/28/99 107/27/98
f 112/24/5 88/5/5 108/29/5
f 89/6/6 109/29/6 87/5/6
f 89/4/100 90/34/101 110/30/101 109/31/100
f 90/34/101 91/35/102 111/32/102 110/30/101
f 91/35/102 92/3/103 112/33/103 111/32/102
f 92/14/5 88/5/5 112/24/5
f 117/7/6 115/6/6 113/5/6
f 117/10/104 118/13/104 116/2/104 115/1/104
f 118/15/5 114/5/5 116/14/5
f 119/15/6 117/7/6 113/5/6
f 119/17/3 120/19/3 118/13/3 117/10/3
f 120/7/5 114/5/5 118/15/5
f 121/14/6 119/15/6 113/5/6
f 121/21/105 122/23/105 120/19/105 119/17/105
f 122/6/5 114/5/5 120/7/5
f 123/24/6 121/14/6 113/5/6
f 123/26/106 124/28/106 122/23/106 121/21/106
f 124/29/5 114/5/5 122/6/5
f 125/29/6 123/24/6 113/5/6
f 125/31/1 126/33/1 124/28/1 123/26/1
f 126/24/5 114/5/5 124/29/5
f 115/6/6 125/29/6 113/5/6
f 115/4/107 116/3/107 126/33/107 125/31/107
f 116/14/5 114/5/5 126/24/5
f 131/7/6 129/6/6 127/5/6
f 131/10/108 132/13/108 130/2/108 129/1/108
f 132/15/5 128/5/5 130/14/5
f 133/15/6 131/7/6 127/5/6
f 133/17/3 134/19/3 132/13/3 131/10/3
f 134/7/5 128/5/5 132/15/5
f 135/14/6 133/15/6 127/5/6
f 135/21/109 136/23/109 134/19/109 133/17/109
f 136/6/5 128/5/5 134/7/5
f 137/24/6 135/14/6 127/5/6
f 137/26/106 138/28/106 136/23/106 135/21/106
f 138/29/5 128/5/5 136/6/5
f 139/29/6 137/24/6 127/5/6
f 139/31/1 140/33/1 138/28/1 137/26/1
f 140/24/5 128/5/5 138/29/5
f 129/6/6 139/29/6 127/5/6
f 129/4/107 130/3/107 140/33/107 139/31/107
f 130/14/5 128/5/5 140/24/5
f 145/7/6 143/6/6 141/5/6
f 145/10/110 146/13/110 144/2/110 143/1/110
f 146/15/5 142/5/5 144/14/5
f 147/15/6 145/7/6 141/5/6
f 147/17/3 148/19/3 146/13/3 145/10/3
f 148/7/5 142/5/5 146/15/5
f 149/14/6 147/15/6 141/5/6
f 149/21/111 150/23/111 148/19/111 147/17/111
f 150/6/5 142/5/5 148/7/5
f 151/24/6 149/14/6 141/5/6
f 151/26/106 152/28/106 150/23/106 149/21/106
f 152/29/5 142/5/5 150/6/5
f 153/29/6 151/24/6 141/5/6
f 153/31/1 154/33/1 152/28/1 151/26/1
f 154/24/5 142/5/5 152/29/5
f 143/6/6 153/29/6 141/5/6
f 143/4/107 144/3/107 154/33/107 153/31/107
f 144/14/5 142/5/5 154/24/5
f 159/7/6 157/6/6 155/5/6
f 159/10/112 160/13/112 158/2/112 157/1/112
f 160/15/5 156/5/5 158/14/5
f 161/15/6 159/7/6 155/5/6
f 161/17/3 162/19/3 160/13/3 159/10/3
f 162/7/5 156/5/5 160/15/5
f 163/14/6 161/15/6 155/5/6
f 163/21/113 164/23/113 162/19/113 161/17/113
f 164/6/5 156/5/5 162/7/5
f 165/24/6 163/14/6 155/5/6
f 165/26/114 166/28/114 164/23/114 163/21/114
f 166/29/5 156/5/5 164/6/5
f 167/29/6 165/24/6 155/5/6
f 167/31/1 168/33/1 166/28/1 165/26/1
f 168/24/5 156/5/5 166/29/5
f 157/6/6 167/29/6 155/5/6
f 157/4/107 158/3/107 168/33/107 167/31/107
f 158/14/5 156/5/5 168/24/5

