# WaveFront *.obj file (generated by CINEMA 4D)

mtllib ./otherpoly10.mtl

v -29.66601943969727 0.0200149808079 29.77037239074707
v -29.66601943969727 12.54437828063965 29.77037239074707
v 29.66601943969727 0.0200149808079 29.77037239074707
v 29.66601943969727 12.54437828063965 29.77037239074707
v 29.66601943969727 0.0200149808079 -29.77037239074707
v 29.66601943969727 12.54437828063965 -29.77037239074707
v -29.66601943969727 0.0200149808079 -29.77037239074707
v -29.66601943969727 12.54437828063965 -29.77037239074707
v -29.66601943969727 24.02001571655273 19.96463012695312
v -29.66601943969727 36.54437637329102 19.96463012695312
v 29.66601943969727 24.02001571655273 19.96463012695312
v 29.66601943969727 36.54437637329102 19.96463012695312
v 29.66601943969727 24.02001571655273 -20.131591796875
v 29.66601943969727 36.54437637329102 -20.131591796875
v -29.66601943969727 24.02001571655273 -20.131591796875
v -29.66601943969727 36.54437637329102 -20.131591796875
v -29.66601943969727 48.02001571655273 10.1176290512085
v -29.66601943969727 60.54437637329102 10.1176290512085
v 29.66601943969727 48.02001571655273 10.1176290512085
v 29.66601943969727 60.54437637329102 10.1176290512085
v 29.66601943969727 48.02001571655273 -10.16802787780762
v 29.66601943969727 60.54437637329102 -10.16802787780762
v -29.66601943969727 48.02001571655273 -10.16802787780762
v -29.66601943969727 60.54437637329102 -10.16802787780762
# 24 vertices

vn 0 0 1
vn 1 0 0
vn 0 0 -1
vn -1 0 0
vn 0 1 0
vn 0 -1 0
# 6 normals

vt 0 0 0
vt 0 1 0
vt 1 1 0
vt 1 0 0
# 4 texture coordinates

o Other01
usemtl default
f 3/4/1 4/3/1 2/2/1 1/1/1
f 5/4/2 6/3/2 4/2/2 3/1/2
f 7/4/3 8/3/3 6/2/3 5/1/3
f 1/4/4 2/3/4 8/2/4 7/1/4
f 4/4/5 6/3/5 8/2/5 2/1/5
f 5/4/6 3/3/6 1/2/6 7/1/6
f 11/4/1 12/3/1 10/2/1 9/1/1
f 13/4/2 14/3/2 12/2/2 11/1/2
f 15/4/3 16/3/3 14/2/3 13/1/3
f 9/4/4 10/3/4 16/2/4 15/1/4
f 12/4/5 14/3/5 16/2/5 10/1/5
f 13/4/6 11/3/6 9/2/6 15/1/6
f 19/4/1 20/3/1 18/2/1 17/1/1
f 21/4/2 22/3/2 20/2/2 19/1/2
f 23/4/3 24/3/3 22/2/3 21/1/3
f 17/4/4 18/3/4 24/2/4 23/1/4
f 20/4/5 22/3/5 24/2/5 18/1/5
f 21/4/6 19/3/6 17/2/6 23/1/6

