# WaveFront *.obj file (generated by CINEMA 4D)

mtllib ./otherpoly07.mtl

v 0 -1.21780347824097 0
v 0 13.78219699859619 0
v 30 -1.21780347824097 0
v 30 13.78219699859619 0
v 27.97416687011719 -1.21780347824097 -10.83724975585938
v 27.97416687011719 13.78219699859619 -10.83724975585938
v 22.17026710510254 -1.21780347824097 -20.21086883544922
v 22.17026710510254 13.78219699859619 -20.21086883544922
v 13.37215042114258 -1.21780347824097 -26.85489845275879
v 13.37215042114258 13.78219699859619 -26.85489845275879
v 2.76805067062378 -1.21780347824097 -29.87202453613281
v 2.76805067062378 13.78219699859619 -29.87202453613281
v -8.20988941192627 -1.21780347824097 -28.85476875305176
v -8.20988941192627 13.78219699859619 -28.85476875305176
v -18.07903861999512 -1.21780347824097 -23.94051742553711
v -18.07903861999512 13.78219699859619 -23.94051742553711
v -25.50651359558105 -1.21780347824097 -15.79296493530273
v -25.50651359558105 13.78219699859619 -15.79296493530273
v -29.48919296264648 -1.21780347824097 -5.51248550415039
v -29.48919296264648 13.78219699859619 -5.51248550415039
v -29.48919296264648 -1.21780347824097 5.51248550415039
v -29.48919296264648 13.78219699859619 5.51248550415039
v -25.50651359558105 -1.21780347824097 15.79296493530273
v -25.50651359558105 13.78219699859619 15.79296493530273
v -18.07903861999512 -1.21780347824097 23.94051742553711
v -18.07903861999512 13.78219699859619 23.94051742553711
v -8.20988941192627 -1.21780347824097 28.85476875305176
v -8.20988941192627 13.78219699859619 28.85476875305176
v 2.76805067062378 -1.21780347824097 29.87202453613281
v 2.76805067062378 13.78219699859619 29.87202453613281
v 13.37215042114258 -1.21780347824097 26.85489845275879
v 13.37215042114258 13.78219699859619 26.85489845275879
v 22.17026710510254 -1.21780347824097 20.21086883544922
v 22.17026710510254 13.78219699859619 20.21086883544922
v 27.97416687011719 -1.21780347824097 10.83724975585938
v 27.97416687011719 13.78219699859619 10.83724975585938
v 0 22.78219604492188 0
v 0 37.78219604492188 0
v 20 22.78219604492188 0
v 20 37.78219604492188 0
v 18.64944458007812 22.78219604492188 -7.22483348846436
v 18.64944458007812 37.78219604492188 -7.22483348846436
v 14.78017807006836 22.78219604492188 -13.47391319274902
v 14.78017807006836 37.78219604492188 -13.47391319274902
v 8.91476726531982 22.78219604492188 -17.90326499938965
v 8.91476726531982 37.78219604492188 -17.90326499938965
v 1.84536719322205 22.78219604492188 -19.9146842956543
v 1.84536719322205 37.78219604492188 -19.9146842956543
v -5.47325992584229 22.78219604492188 -19.23651313781738
v -5.47325992584229 37.78219604492188 -19.23651313781738
v -12.05269241333008 22.78219604492188 -15.9603443145752
v -12.05269241333008 37.78219604492188 -15.9603443145752
v -17.00434303283691 22.78219604492188 -10.52864360809326
v -17.00434303283691 37.78219604492188 -10.52864360809326
v -19.65946197509766 22.78219604492188 -3.67499041557312
v -19.65946197509766 37.78219604492188 -3.67499041557312
v -19.65946197509766 22.78219604492188 3.67499041557312
v -19.65946197509766 37.78219604492188 3.67499041557312
v -17.00434303283691 22.78219604492188 10.52864360809326
v -17.00434303283691 37.78219604492188 10.52864360809326
v -12.05269241333008 22.78219604492188 15.9603443145752
v -12.05269241333008 37.78219604492188 15.9603443145752
v -5.47325992584229 22.78219604492188 19.23651313781738
v -5.47325992584229 37.78219604492188 19.23651313781738
v 1.84536719322205 22.78219604492188 19.9146842956543
v 1.84536719322205 37.78219604492188 19.9146842956543
v 8.91476726531982 22.78219604492188 17.90326499938965
v 8.91476726531982 37.78219604492188 17.90326499938965
v 14.78017807006836 22.78219604492188 13.47391319274902
v 14.78017807006836 37.78219604492188 13.47391319274902
v 18.64944458007812 22.78219604492188 7.22483348846436
v 18.64944458007812 37.78219604492188 7.22483348846436
v 0 46.78219604492188 0
v 0 61.78219604492188 0
v 10 46.78219604492188 0
v 10 61.78219604492188 0
v 9.32472229003906 46.78219604492188 -3.61241674423218
v 9.32472229003906 61.78219604492188 -3.61241674423218
v 7.39008903503418 46.78219604492188 -6.73695659637451
v 7.39008903503418 61.78219604492188 -6.73695659637451
v 4.45738363265991 46.78219604492188 -8.95163249969482
v 4.45738363265991 61.78219604492188 -8.95163249969482
v 0.92268359661102 46.78219604492188 -9.95734214782715
v 0.92268359661102 61.78219604492188 -9.95734214782715
v -2.73662996292114 46.78219604492188 -9.61825656890869
v -2.73662996292114 61.78219604492188 -9.61825656890869
v -6.02634620666504 46.78219604492188 -7.9801721572876
v -6.02634620666504 61.78219604492188 -7.9801721572876
v -8.50217151641846 46.78219604492188 -5.26432180404663
v -8.50217151641846 61.78219604492188 -5.26432180404663
v -9.82973098754883 46.78219604492188 -1.83749520778656
v -9.82973098754883 61.78219604492188 -1.83749520778656
v -9.82973098754883 46.78219604492188 1.83749520778656
v -9.82973098754883 61.78219604492188 1.83749520778656
v -8.50217151641846 46.78219604492188 5.26432180404663
v -8.50217151641846 61.78219604492188 5.26432180404663
v -6.02634620666504 46.78219604492188 7.9801721572876
v -6.02634620666504 61.78219604492188 7.9801721572876
v -2.73662996292114 46.78219604492188 9.61825656890869
v -2.73662996292114 61.78219604492188 9.61825656890869
v 0.92268359661102 46.78219604492188 9.95734214782715
v 0.92268359661102 61.78219604492188 9.95734214782715
v 4.45738363265991 46.78219604492188 8.95163249969482
v 4.45738363265991 61.78219604492188 8.95163249969482
v 7.39008903503418 46.78219604492188 6.73695659637451
v 7.39008903503418 61.78219604492188 6.73695659637451
v 9.32472229003906 46.78219604492188 3.61241674423218
v 9.32472229003906 61.78219604492188 3.61241674423218
# 108 vertices

vn 0 -1 0
vn 0 0 0
vn 1 0 0
vn 0.93247222900391 0 -0.36124166846275
vn 0 1 0
vn 0.73900890350342 0 -0.67369562387466
vn 0.4457383453846 0 -0.8951632976532
vn 0.09226834774017 0 -0.99573415517807
vn -0.27366295456886 0 -0.9618256688118
vn -0.60263460874557 0 -0.79801726341248
vn -0.85021710395813 0 -0.52643221616745
vn -0.98297309875488 0 -0.18374954164028
vn -0.98297309875488 0 0.18374954164028
vn -0.85021710395813 0 0.52643221616745
vn -0.60263460874557 0 0.79801726341248
vn -0.27366295456886 0 0.9618256688118
vn 0.09226834774017 0 0.99573415517807
vn 0.4457383453846 0 0.8951632976532
vn 0.73900890350342 0 0.67369562387466
vn 0.93247222900391 0 0.36124166846275
vn 0.73900890350342 0 -0.67369568347931
vn 0.44573840498924 0 -0.8951632976532
vn 0.09226842224598 0 -0.99573415517807
vn -0.27366304397583 0 -0.96182560920715
vn -0.98297309875488 0 -0.1837494969368
vn -0.98297309875488 0 0.1837494969368
vn -0.27366304397583 0 0.96182560920715
vn 0.09226842224598 0 0.99573415517807
vn 0.44573840498924 0 0.8951632976532
vn 0.73900890350342 0 0.67369568347931
# 30 normals

vt 0.5 0.5 0
vt 0 0.5 0
vt 0.03376388549805 0.68062084913254 0
vt 0 0 0
vt 0 1 0
vt 0.0588235296309 1 0
vt 0.0588235296309 0 0
vt 1 0.5 0
vt 0.96623611450195 0.68062084913254 0
vt 0.13049554824829 0.83684784173965 0
vt 0.1176470592618 1 0
vt 0.1176470592618 0 0
vt 0.86950445175171 0.83684784173965 0
vt 0.27713081240654 0.9475816488266 0
vt 0.17647059261799 1 0
vt 0.17647059261799 0 0
vt 0.72286915779114 0.9475816488266 0
vt 0.45386582612991 0.99786710739136 0
vt 0.2352941185236 1 0
vt 0.2352941185236 0 0
vt 0.54613417387009 0.99786710739136 0
vt 0.63683152198792 0.98091280460358 0
vt 0.29411765933037 1 0
vt 0.29411765933037 0 0
vt 0.36316850781441 0.98091280460358 0
vt 0.80131733417511 0.89900863170624 0
vt 0.35294118523598 1 0
vt 0.35294118523598 0 0
vt 0.19868268072605 0.89900863170624 0
vt 0.92510855197906 0.7632160782814 0
vt 0.41176471114159 1 0
vt 0.41176471114159 0 0
vt 0.07489143311977 0.7632160782814 0
vt 0.99148654937744 0.59187477827072 0
vt 0.4705882370472 1 0
vt 0.4705882370472 0 0
vt 0.00851345062256 0.59187477827072 0
vt 0.99148654937744 0.40812528133392 0
vt 0.52941179275513 1 0
vt 0.52941179275513 0 0
vt 0.00851345062256 0.40812528133392 0
vt 0.92510855197906 0.23678398132324 0
vt 0.58823531866074 1 0
vt 0.58823531866074 0 0
vt 0.07489143311977 0.23678398132324 0
vt 0.80131733417511 0.10099136829376 0
vt 0.64705884456635 1 0
vt 0.64705884456635 0 0
vt 0.19868268072605 0.10099136829376 0
vt 0.63683152198792 0.01908719539642 0
vt 0.70588237047195 1 0
vt 0.70588237047195 0 0
vt 0.36316850781441 0.01908719539642 0
vt 0.45386582612991 0.00213289260864 0
vt 0.76470589637756 1 0
vt 0.76470589637756 0 0
vt 0.54613417387009 0.00213289260864 0
vt 0.27713081240654 0.0524183511734 0
vt 0.82352942228317 1 0
vt 0.82352942228317 0 0
vt 0.72286915779114 0.0524183511734 0
vt 0.13049554824829 0.16315221786499 0
vt 0.88235294818878 1 0
vt 0.88235294818878 0 0
vt 0.86950445175171 0.16315221786499 0
vt 0.03376388549805 0.31937921047211 0
vt 0.94117647409439 1 0
vt 0.94117647409439 0 0
vt 0.96623611450195 0.31937921047211 0
vt 1 1 0
vt 1 0 0
# 71 texture coordinates

o Other01.3
usemtl default
f 5/3/1 3/2/1 1/1/1
f 5/7/4 6/6/4 4/5/3 3/4/3
f 6/9/5 2/1/5 4/8/5
f 7/10/1 5/3/1 1/1/1
f 7/12/6 8/11/6 6/6/4 5/7/4
f 8/13/5 2/1/5 6/9/5
f 9/14/1 7/10/1 1/1/1
f 9/16/7 10/15/7 8/11/6 7/12/6
f 10/17/5 2/1/5 8/13/5
f 11/18/1 9/14/1 1/1/1
f 11/20/8 12/19/8 10/15/7 9/16/7
f 12/21/5 2/1/5 10/17/5
f 13/22/1 11/18/1 1/1/1
f 13/24/9 14/23/9 12/19/8 11/20/8
f 14/25/5 2/1/5 12/21/5
f 15/26/1 13/22/1 1/1/1
f 15/28/10 16/27/10 14/23/9 13/24/9
f 16/29/5 2/1/5 14/25/5
f 17/30/1 15/26/1 1/1/1
f 17/32/11 18/31/11 16/27/10 15/28/10
f 18/33/5 2/1/5 16/29/5
f 19/34/1 17/30/1 1/1/1
f 19/36/12 20/35/12 18/31/11 17/32/11
f 20/37/5 2/1/5 18/33/5
f 21/38/1 19/34/1 1/1/1
f 21/40/13 22/39/13 20/35/12 19/36/12
f 22/41/5 2/1/5 20/37/5
f 23/42/1 21/38/1 1/1/1
f 23/44/14 24/43/14 22/39/13 21/40/13
f 24/45/5 2/1/5 22/41/5
f 25/46/1 23/42/1 1/1/1
f 25/48/15 26/47/15 24/43/14 23/44/14
f 26/49/5 2/1/5 24/45/5
f 27/50/1 25/46/1 1/1/1
f 27/52/16 28/51/16 26/47/15 25/48/15
f 28/53/5 2/1/5 26/49/5
f 29/54/1 27/50/1 1/1/1
f 29/56/17 30/55/17 28/51/16 27/52/16
f 30/57/5 2/1/5 28/53/5
f 31/58/1 29/54/1 1/1/1
f 31/60/18 32/59/18 30/55/17 29/56/17
f 32/61/5 2/1/5 30/57/5
f 33/62/1 31/58/1 1/1/1
f 33/64/19 34/63/19 32/59/18 31/60/18
f 34/65/5 2/1/5 32/61/5
f 35/66/1 33/62/1 1/1/1
f 35/68/20 36/67/20 34/63/19 33/64/19
f 36/69/5 2/1/5 34/65/5
f 3/2/1 35/66/1 1/1/1
f 3/71/3 4/70/3 36/67/20 35/68/20
f 4/8/5 2/1/5 36/69/5
f 41/3/1 39/2/1 37/1/1
f 41/7/4 42/6/4 40/5/3 39/4/3
f 42/9/5 38/1/5 40/8/5
f 43/10/1 41/3/1 37/1/1
f 43/12/21 44/11/21 42/6/4 41/7/4
f 44/13/5 38/1/5 42/9/5
f 45/14/1 43/10/1 37/1/1
f 45/16/22 46/15/22 44/11/21 43/12/21
f 46/17/5 38/1/5 44/13/5
f 47/18/1 45/14/1 37/1/1
f 47/20/23 48/19/23 46/15/22 45/16/22
f 48/21/5 38/1/5 46/17/5
f 49/22/1 47/18/1 37/1/1
f 49/24/24 50/23/24 48/19/23 47/20/23
f 50/25/5 38/1/5 48/21/5
f 51/26/1 49/22/1 37/1/1
f 51/28/10 52/27/10 50/23/24 49/24/24
f 52/29/5 38/1/5 50/25/5
f 53/30/1 51/26/1 37/1/1
f 53/32/11 54/31/11 52/27/10 51/28/10
f 54/33/5 38/1/5 52/29/5
f 55/34/1 53/30/1 37/1/1
f 55/36/25 56/35/25 54/31/11 53/32/11
f 56/37/5 38/1/5 54/33/5
f 57/38/1 55/34/1 37/1/1
f 57/40/26 58/39/26 56/35/25 55/36/25
f 58/41/5 38/1/5 56/37/5
f 59/42/1 57/38/1 37/1/1
f 59/44/14 60/43/14 58/39/26 57/40/26
f 60/45/5 38/1/5 58/41/5
f 61/46/1 59/42/1 37/1/1
f 61/48/15 62/47/15 60/43/14 59/44/14
f 62/49/5 38/1/5 60/45/5
f 63/50/1 61/46/1 37/1/1
f 63/52/27 64/51/27 62/47/15 61/48/15
f 64/53/5 38/1/5 62/49/5
f 65/54/1 63/50/1 37/1/1
f 65/56/28 66/55/28 64/51/27 63/52/27
f 66/57/5 38/1/5 64/53/5
f 67/58/1 65/54/1 37/1/1
f 67/60/29 68/59/29 66/55/28 65/56/28
f 68/61/5 38/1/5 66/57/5
f 69/62/1 67/58/1 37/1/1
f 69/64/30 70/63/30 68/59/29 67/60/29
f 70/65/5 38/1/5 68/61/5
f 71/66/1 69/62/1 37/1/1
f 71/68/20 72/67/20 70/63/30 69/64/30
f 72/69/5 38/1/5 70/65/5
f 39/2/1 71/66/1 37/1/1
f 39/71/3 40/70/3 72/67/20 71/68/20
f 40/8/5 38/1/5 72/69/5
f 77/3/1 75/2/1 73/1/1
f 77/7/4 78/6/4 76/5/3 75/4/3
f 78/9/5 74/1/5 76/8/5
f 79/10/1 77/3/1 73/1/1
f 79/12/21 80/11/21 78/6/4 77/7/4
f 80/13/5 74/1/5 78/9/5
f 81/14/1 79/10/1 73/1/1
f 81/16/22 82/15/22 80/11/21 79/12/21
f 82/17/5 74/1/5 80/13/5
f 83/18/1 81/14/1 73/1/1
f 83/20/23 84/19/23 82/15/22 81/16/22
f 84/21/5 74/1/5 82/17/5
f 85/22/1 83/18/1 73/1/1
f 85/24/24 86/23/24 84/19/23 83/20/23
f 86/25/5 74/1/5 84/21/5
f 87/26/1 85/22/1 73/1/1
f 87/28/10 88/27/10 86/23/24 85/24/24
f 88/29/5 74/1/5 86/25/5
f 89/30/1 87/26/1 73/1/1
f 89/32/11 90/31/11 88/27/10 87/28/10
f 90/33/5 74/1/5 88/29/5
f 91/34/1 89/30/1 73/1/1
f 91/36/25 92/35/25 90/31/11 89/32/11
f 92/37/5 74/1/5 90/33/5
f 93/38/1 91/34/1 73/1/1
f 93/40/26 94/39/26 92/35/25 91/36/25
f 94/41/5 74/1/5 92/37/5
f 95/42/1 93/38/1 73/1/1
f 95/44/14 96/43/14 94/39/26 93/40/26
f 96/45/5 74/1/5 94/41/5
f 97/46/1 95/42/1 73/1/1
f 97/48/15 98/47/15 96/43/14 95/44/14
f 98/49/5 74/1/5 96/45/5
f 99/50/1 97/46/1 73/1/1
f 99/52/27 100/51/27 98/47/15 97/48/15
f 100/53/5 74/1/5 98/49/5
f 101/54/1 99/50/1 73/1/1
f 101/56/28 102/55/28 100/51/27 99/52/27
f 102/57/5 74/1/5 100/53/5
f 103/58/1 101/54/1 73/1/1
f 103/60/29 104/59/29 102/55/28 101/56/28
f 104/61/5 74/1/5 102/57/5
f 105/62/1 103/58/1 73/1/1
f 105/64/30 106/63/30 104/59/29 103/60/29
f 106/65/5 74/1/5 104/61/5
f 107/66/1 105/62/1 73/1/1
f 107/68/20 108/67/20 106/63/30 105/64/30
f 108/69/5 74/1/5 106/65/5
f 75/2/1 107/66/1 73/1/1
f 75/71/3 76/70/3 108/67/20 107/68/20
f 76/8/5 74/1/5 108/69/5

