# WaveFront *.obj file (generated by CINEMA 4D)

mtllib ./poly02.mtl

v -29.98305130004883 0.02726872637868 30.01432609558105
v -29.98305130004883 60.02726745605469 30.01432609558105
v 30.01694869995117 0.02726872637868 30.01432609558105
v 30.01694869995117 60.32562255859375 30.01432609558105
v 30.01694869995117 0.02726872637868 -29.98567390441895
v 30.01694869995117 0.03423425927758 -29.98567390441895
v -29.98305130004883 0.02726872637868 -29.98567390441895
v -29.98305130004883 60.02726745605469 -29.98567390441895
v 30.00428009033203 0.02726872637868 -29.98567390441895
# 9 vertices

vn 0 0 1
vn 1 0 0
vn 0 0 -1
vn 0 0 0
vn -1 0 0
vn -0.00350761716254 0.70538747310638 -0.7088131904602
vn 0 -1 0
vn 0.70706576108932 0.70714783668518 0
# 8 normals

vt 0 0 0
vt 0 1 0
vt 1 1 0
vt 1 0 0
vt 0.00021114859555 0 0
vt 0.99978888034821 0 0
# 6 texture coordinates

o Cube.1
usemtl default
f 3/4/1 4/3/1 2/2/1 1/1/1
f 5/4/2 6/3/2 4/2/2 3/1/2
f 9/5/3 6/2/3 5/1/3
f 1/4/5 2/3/5 8/2/5 7/1/5
f 4/4/6 6/3/6 2/1/6
f 9/6/7 5/4/7 3/3/7 1/2/7 7/1/7
f 9/5/3 7/4/3 8/3/3 6/2/3
f 6/3/8 8/2/8 2/1/8

