# WaveFront *.obj file (generated by CINEMA 4D)

mtllib ./totem06.mtl

v 0.00912757311016 103.84589385986328 0.95152527093887
v 0.03256294131279 115.74589538574219 1.00618398189545
v 4.70912742614746 103.84589385986328 0.95152527093887
v 6.03790903091431 109.79589080810547 0.91450363397598
v 11.78072738647461 115.74589538574219 1.00618398189545
v -2.34087252616882 103.84589385986328 -3.11879420280457
v -3.01580119132996 109.79589080810547 -4.31265830993652
v -5.84151887893677 115.74589538574219 -9.16802406311035
v -2.34087252616882 103.84589385986328 5.0218448638916
v -3.01580119132996 109.79589080810547 6.1416654586792
v -5.84151887893677 115.74589538574219 11.18039226531982
v 0 10.74492835998535 0.8761550784111
v 0.05858842656016 40.49492645263672 1.01280176639557
v 11.75 10.74492835998535 0.8761550784111
v 15.07195377349854 25.61992835998535 0.78360098600388
v 29.42899894714355 40.49492645263672 1.01280176639557
v -5.875 10.74492835998535 -9.29964351654053
v -7.56232213973999 25.61992835998535 -12.28430366516113
v -14.62661647796631 40.49492645263672 -24.42271995544434
v -5.875 10.74492835998535 11.05195331573486
v -7.56232213973999 25.61992835998535 13.85150623321533
v -14.62661647796631 40.49492645263672 26.44832229614258
v 0 36.99492645263672 0.8761550784111
v 0.0468707382679 66.74492645263672 0.9854724407196
v 9.39999961853027 36.99492645263672 0.8761550784111
v 12.05756282806396 51.86992645263672 0.80211180448532
v 23.54319953918457 66.74492645263672 0.9854724407196
v -4.69999980926514 36.99492645263672 -7.26448392868042
v -6.04985761642456 51.86992645263672 -9.65221214294434
v -11.70129299163818 66.74492645263672 -19.36294364929199
v -4.69999980926514 36.99492645263672 9.01679420471191
v -6.04985761642456 51.86992645263672 11.25643539428711
v -11.70129299163818 66.74492645263672 21.33388900756836
v 0 63.24492645263672 0.8761550784111
v 0.03515305370092 92.99492645263672 0.95814311504364
v 7.05000019073486 63.24492645263672 0.8761550784111
v 9.04317188262939 78.11992645263672 0.82062262296677
v 17.65739822387695 92.99492645263672 0.95814311504364
v -3.52500009536743 63.24492645263672 -5.22932386398315
v -4.53739309310913 78.11992645263672 -7.02012062072754
v -8.77596950531006 92.99492645263672 -14.30316925048828
v -3.52500009536743 63.24492645263672 6.98163414001465
v -4.53739309310913 78.11992645263672 8.6613655090332
v -8.77596950531006 92.99492645263672 16.21945571899414
v -29.71389579772949 1.55241644382477 30.72287368774414
v -29.71389579772949 11.55241680145264 30.72287368774414
v 29.78610420227051 1.55241644382477 30.72287368774414
v 29.78610420227051 11.55241680145264 30.72287368774414
v 29.78610420227051 1.55241644382477 -28.77712631225586
v 29.78610420227051 11.55241680145264 -28.77712631225586
v -29.71389579772949 1.55241644382477 -28.77712631225586
v -29.71389579772949 11.55241680145264 -28.77712631225586
# 52 vertices

vn 0 -1 0
vn 0 0 0
vn 0.49660959839821 -0.11625720560551 -0.86015301942825
vn 0.48085364699364 -0.27407872676849 -0.83286291360855
vn 0.45264327526093 -0.42480143904686 -0.78400111198425
vn 0 1 0
vn -0.993627846241 -0.11271062493324 0
vn -0.96156150102615 -0.27458956837654 0
vn -0.90330898761749 -0.42899060249329 0
vn 0.49720019102097 -0.10567869991064 0.86117595434189
vn 0.48009246587753 -0.27936506271362 0.83154457807541
vn 0.44793981313705 -0.44429674744606 0.77585458755493
vn 0.49660953879356 -0.11625708639622 -0.86015301942825
vn 0.48085358738899 -0.27407887578011 -0.83286291360855
vn 0.45264321565628 -0.42480182647705 -0.78400099277496
vn -0.993627846241 -0.1127106025815 0
vn -0.96156150102615 -0.27458974719048 0
vn -0.90330880880356 -0.42899096012115 0
vn 0.49720019102097 -0.10567868500948 0.86117595434189
vn 0.48009246587753 -0.27936521172524 0.83154451847076
vn 0.44793972373009 -0.44429704546928 0.77585446834564
vn 0.4978221654892 -0.09323278069496 -0.8622533082962
vn 0.4872579574585 -0.22431817650795 -0.84395557641983
vn 0.46810352802277 -0.35144889354706 -0.81077909469604
vn -0.9959077835083 -0.09037538617849 0
vn -0.97439283132553 -0.2248525172472 0
vn -0.93480581045151 -0.35515931248665 0
vn 0.49820271134377 -0.08471339195967 0.86291235685349
vn 0.4866895377636 -0.22920125722885 0.84297096729279
vn 0.46475780010223 -0.36878263950348 0.80498421192169
vn 0.49877145886421 -0.07005792856216 -0.86389750242233
vn 0.49259829521179 -0.17142823338509 -0.8532053232193
vn 0.48128813505173 -0.27101081609726 -0.83361554145813
vn -0.99769192934036 -0.06790294498205 0
vn -0.985111951828 -0.17191411554813 0
vn -0.96171879768372 -0.27403825521469 0
vn 0.49898660182953 -0.0636350363493 0.86427021026611
vn 0.49223673343658 -0.17553342878819 0.85257905721664
vn 0.47923374176025 -0.28520193696022 0.83005714416504
vn 0 0 1
vn 1 0 0
vn 0 0 -1
vn -1 0 0
# 43 normals

vt 0.5 0.5 0
vt 0 0.5 0
vt 0.75 0.93301272392273 0
vt 0 0 0
vt 0.33333334326744 0.5 0
vt 0.33333334326744 0 0
vt 0 1 0
vt 0.33333334326744 1 0
vt 1 0.5 0
vt 0.25 0.93301272392273 0
vt 0.75 0.06698727607727 0
vt 0.66666668653488 0.5 0
vt 0.66666668653488 0 0
vt 0.66666668653488 1 0
vt 0.25 0.06698727607727 0
vt 1 0 0
vt 1 1 0
# 17 texture coordinates

o totem02.1
usemtl default
f 6/3/1 3/2/1 1/1/1
f 6/6/3 7/5/4 4/2/4 3/4/3
f 7/5/4 8/8/5 5/7/5 4/2/4
f 8/10/6 2/1/6 5/9/6
f 9/11/1 6/3/1 1/1/1
f 9/13/7 10/12/8 7/5/8 6/6/7
f 10/12/8 11/14/9 8/8/9 7/5/8
f 11/15/6 2/1/6 8/10/6
f 3/2/1 9/11/1 1/1/1
f 3/16/10 4/9/11 10/12/11 9/13/10
f 4/9/11 5/17/12 11/14/12 10/12/11
f 5/9/6 2/1/6 11/15/6
f 17/3/1 14/2/1 12/1/1
f 17/6/13 18/5/14 15/2/14 14/4/13
f 18/5/14 19/8/15 16/7/15 15/2/14
f 19/10/6 13/1/6 16/9/6
f 20/11/1 17/3/1 12/1/1
f 20/13/16 21/12/17 18/5/17 17/6/16
f 21/12/17 22/14/18 19/8/18 18/5/17
f 22/15/6 13/1/6 19/10/6
f 14/2/1 20/11/1 12/1/1
f 14/16/19 15/9/20 21/12/20 20/13/19
f 15/9/20 16/17/21 22/14/21 21/12/20
f 16/9/6 13/1/6 22/15/6
f 28/3/1 25/2/1 23/1/1
f 28/6/22 29/5/23 26/2/23 25/4/22
f 29/5/23 30/8/24 27/7/24 26/2/23
f 30/10/6 24/1/6 27/9/6
f 31/11/1 28/3/1 23/1/1
f 31/13/25 32/12/26 29/5/26 28/6/25
f 32/12/26 33/14/27 30/8/27 29/5/26
f 33/15/6 24/1/6 30/10/6
f 25/2/1 31/11/1 23/1/1
f 25/16/28 26/9/29 32/12/29 31/13/28
f 26/9/29 27/17/30 33/14/30 32/12/29
f 27/9/6 24/1/6 33/15/6
f 39/3/1 36/2/1 34/1/1
f 39/6/31 40/5/32 37/2/32 36/4/31
f 40/5/32 41/8/33 38/7/33 37/2/32
f 41/10/6 35/1/6 38/9/6
f 42/11/1 39/3/1 34/1/1
f 42/13/34 43/12/35 40/5/35 39/6/34
f 43/12/35 44/14/36 41/8/36 40/5/35
f 44/15/6 35/1/6 41/10/6
f 36/2/1 42/11/1 34/1/1
f 36/16/37 37/9/38 43/12/38 42/13/37
f 37/9/38 38/17/39 44/14/39 43/12/38
f 38/9/6 35/1/6 44/15/6
f 47/16/40 48/17/40 46/7/40 45/4/40
f 49/16/41 50/17/41 48/7/41 47/4/41
f 51/16/42 52/17/42 50/7/42 49/4/42
f 45/16/43 46/17/43 52/7/43 51/4/43
f 48/16/6 50/17/6 52/7/6 46/4/6
f 49/16/1 47/17/1 45/7/1 51/4/1

