# WaveFront *.obj file (generated by CINEMA 4D)

mtllib ./towertips01.mtl

v -29.71445274353027 12.12643718719482 31.02348136901855
v -28.65987205505371 21.21734619140625 29.9218921661377
v -26.30449867248535 30.30825614929199 27.46152877807617
v -23.0305290222168 39.39916610717773 24.0416202545166
v -19.22015190124512 48.49007415771484 20.06139373779297
v -15.25556087493896 57.58098220825195 15.92008018493652
v -11.51894855499268 66.67189025878906 12.01690769195557
v -9.07193660736084 75.76280212402344 9.46082019805908
v -8.34732055664062 84.85370635986328 8.70390319824219
v -9.41445922851562 93.94461822509766 9.81861114501953
v -11.92914867401123 103.03553009033203 12.44539260864258
v -14.61722183227539 112.12643432617188 15.25328731536865
v 29.74053382873535 12.12643718719482 31.02348136901855
v 28.68397331237793 21.21734619140625 29.9218921661377
v 26.32417869567871 30.30825614929199 27.46152877807617
v 23.0440616607666 39.39916610717773 24.0416202545166
v 19.22653007507324 48.49007415771484 20.06139373779297
v 15.25449657440186 57.58098220825195 15.92008018493652
v 11.51086807250977 66.67189025878906 12.01690769195557
v 9.05926322937012 75.76280212402344 9.46082019805908
v 8.33328628540039 84.85370635986328 8.70390319824219
v 9.40242862701416 93.94461822509766 9.81861114501953
v 11.92183876037598 103.03553009033203 12.44539260864258
v 14.61495876312256 112.12643432617188 15.25328731536865
v 29.74053382873535 12.12643718719482 -28.43150520324707
v 28.68397331237793 21.21734619140625 -27.42195320129395
v 26.32417869567871 30.30825614929199 -25.16714859008789
v 23.0440616607666 39.39916610717773 -22.0329704284668
v 19.22653007507324 48.49007415771484 -18.38528823852539
v 15.25449657440186 57.58098220825195 -14.58997631072998
v 11.51086807250977 66.67189025878906 -11.01290893554688
v 9.05926322937012 75.76280212402344 -8.67037963867188
v 8.33328628540039 84.85370635986328 -7.97670269012451
v 9.40242862701416 93.94461822509766 -8.99827766418457
v 11.92183876037598 103.03553009033203 -11.40559482574463
v 14.61495876312256 112.12643432617188 -13.9788932800293
v -29.71445274353027 12.12643718719482 -28.43150520324707
v -28.65987205505371 21.21734619140625 -27.42195320129395
v -26.30449867248535 30.30825614929199 -25.16714859008789
v -23.0305290222168 39.39916610717773 -22.0329704284668
v -19.22015190124512 48.49007415771484 -18.38528823852539
v -15.25556087493896 57.58098220825195 -14.58997631072998
v -11.51894855499268 66.67189025878906 -11.01290893554688
v -9.07193660736084 75.76280212402344 -8.67037963867188
v -8.34732055664062 84.85370635986328 -7.97670269012451
v -9.41445922851562 93.94461822509766 -8.99827766418457
v -11.92914867401123 103.03553009033203 -11.40559482574463
v -14.61722183227539 112.12643432617188 -13.9788932800293
v -29.7369384765625 0.05611798912287 31.04696846008301
v -29.7369384765625 5.05611801147461 31.04696846008301
v 29.7630615234375 0.05611798912287 31.04696846008301
v 29.7630615234375 5.05611801147461 31.04696846008301
v 29.7630615234375 0.05611798912287 -28.45303153991699
v 29.7630615234375 5.05611801147461 -28.45303153991699
v -29.7369384765625 0.05611798912287 -28.45303153991699
v -29.7369384765625 5.05611801147461 -28.45303153991699
# 56 vertices

vn 0 0.12029486149549 0.99273818731308
vn 0 0.19126182794571 0.98153907060623
vn 0 0.30702057480812 0.9517028927803
vn 0 0.37671580910683 0.9263288974762
vn 0 0.40782362222672 0.91306072473526
vn 0 0.40456384420395 0.91450977325439
vn 0 0.33331808447838 0.94281440973282
vn 0 0.17763341963291 0.98409670591354
vn 0 -0.01946851238608 0.99981045722961
vn 0 -0.20028303563595 0.9797380566597
vn 0 -0.2863632440567 0.95812112092972
vn 0 -0.2951123714447 0.9554625749588
vn 0.99331390857697 0.11544479429722 0
vn 0.98296612501144 0.18378676474094 0
vn 0.95529997348785 0.29563826322556 0
vn 0.93163096904755 0.36340579390526 0
vn 0.91920208930969 0.39378616213799 0
vn 0.92056113481522 0.39059844613075 0
vn 0.9470027089119 0.32122558355331 0
vn 0.98532146215439 0.17070919275284 0
vn 0.99982535839081 -0.0186887010932 0
vn 0.9812970161438 -0.19249984622002 0
vn 0.96128219366074 -0.27556589245796 0
vn 0.95881193876266 -0.28404158353806 0
vn 0 0.11037223786116 -0.99389034509659
vn 0 0.17593935132027 -0.98440098762512
vn 0 0.28361368179321 -0.95893859863281
vn 0 0.34926721453667 -0.9370231628418
vn 0 0.37883159518242 -0.92546564340591
vn 0 0.37572526931763 -0.92673110961914
vn 0 0.30841985344887 -0.95125031471252
vn 0 0.16343796253204 -0.98655360937119
vn 0 -0.01787246018648 -0.999840259552
vn 0 -0.18432351946831 -0.98286563158035
vn 0 -0.26418134570122 -0.9644730091095
vn 0 -0.27236175537109 -0.96219491958618
vn -0.99333870410919 0.11523135006428 0
vn -0.9830276966095 0.18345707654953 0
vn -0.95545566082001 0.29513469338417 0
vn -0.93186104297638 0.36281538009644 0
vn -0.919468998909 0.39316245913506 0
vn -0.92082417011261 0.38997802138329 0
vn -0.94718426465988 0.32068991661072 0
vn -0.9853743314743 0.17040377855301 0
vn -0.9998260140419 -0.01865433342755 0
vn -0.98136430978775 -0.19215650856495 0
vn -0.96141880750656 -0.27508875727654 0
vn -0.95895677804947 -0.28355222940445 0
vn 0 1 0
vn 0 -1 0
vn 0 0 1
vn 1 0 0
vn 0 0 -1
vn -1 0 0
# 54 normals

vt 0 0 0
vt 0 0.09090912342072 0
vt 1 0.09090912342072 0
vt 1 0 0
vt 0 0.18181824684143 0
vt 1 0.18181824684143 0
vt 0 0.27272725105286 0
vt 1 0.27272725105286 0
vt 0 0.36363637447357 0
vt 1 0.36363637447357 0
vt 0 0.45454549789429 0
vt 1 0.45454549789429 0
vt 0 0.54545456171036 0
vt 1 0.54545456171036 0
vt 0 0.63636362552643 0
vt 1 0.63636362552643 0
vt 0 0.72727274894714 0
vt 1 0.72727274894714 0
vt 0 0.81818181276321 0
vt 1 0.81818181276321 0
vt 0 0.90909087657928 0
vt 1 0.90909087657928 0
vt 0 1 0
vt 1 1 0
# 24 texture coordinates

o Null.4
usemtl default
f 13/4/1 14/3/2 2/2/2 1/1/1
f 14/3/2 15/6/3 3/5/3 2/2/2
f 15/6/3 16/8/4 4/7/4 3/5/3
f 16/8/4 17/10/5 5/9/5 4/7/4
f 17/10/5 18/12/6 6/11/6 5/9/5
f 18/12/6 19/14/7 7/13/7 6/11/6
f 19/14/7 20/16/8 8/15/8 7/13/7
f 20/16/8 21/18/9 9/17/9 8/15/8
f 21/18/9 22/20/10 10/19/10 9/17/9
f 22/20/10 23/22/11 11/21/11 10/19/10
f 23/22/11 24/24/12 12/23/12 11/21/11
f 25/4/13 26/3/14 14/2/14 13/1/13
f 26/3/14 27/6/15 15/5/15 14/2/14
f 27/6/15 28/8/16 16/7/16 15/5/15
f 28/8/16 29/10/17 17/9/17 16/7/16
f 29/10/17 30/12/18 18/11/18 17/9/17
f 30/12/18 31/14/19 19/13/19 18/11/18
f 31/14/19 32/16/20 20/15/20 19/13/19
f 32/16/20 33/18/21 21/17/21 20/15/20
f 33/18/21 34/20/22 22/19/22 21/17/21
f 34/20/22 35/22/23 23/21/23 22/19/22
f 35/22/23 36/24/24 24/23/24 23/21/23
f 37/4/25 38/3/26 26/2/26 25/1/25
f 38/3/26 39/6/27 27/5/27 26/2/26
f 39/6/27 40/8/28 28/7/28 27/5/27
f 40/8/28 41/10/29 29/9/29 28/7/28
f 41/10/29 42/12/30 30/11/30 29/9/29
f 42/12/30 43/14/31 31/13/31 30/11/30
f 43/14/31 44/16/32 32/15/32 31/13/31
f 44/16/32 45/18/33 33/17/33 32/15/32
f 45/18/33 46/20/34 34/19/34 33/17/33
f 46/20/34 47/22/35 35/21/35 34/19/34
f 47/22/35 48/24/36 36/23/36 35/21/35
f 1/4/37 2/3/38 38/2/38 37/1/37
f 2/3/38 3/6/39 39/5/39 38/2/38
f 3/6/39 4/8/40 40/7/40 39/5/39
f 4/8/40 5/10/41 41/9/41 40/7/40
f 5/10/41 6/12/42 42/11/42 41/9/41
f 6/12/42 7/14/43 43/13/43 42/11/42
f 7/14/43 8/16/44 44/15/44 43/13/43
f 8/16/44 9/18/45 45/17/45 44/15/44
f 9/18/45 10/20/46 46/19/46 45/17/45
f 10/20/46 11/22/47 47/21/47 46/19/46
f 11/22/47 12/24/48 48/23/48 47/21/47
f 24/4/49 36/24/49 48/23/49 12/1/49
f 25/4/50 13/24/50 1/23/50 37/1/50
f 51/4/51 52/24/51 50/23/51 49/1/51
f 53/4/52 54/24/52 52/23/52 51/1/52
f 55/4/53 56/24/53 54/23/53 53/1/53
f 49/4/54 50/24/54 56/23/54 55/1/54
f 52/4/49 54/24/49 56/23/49 50/1/49
f 53/4/50 51/24/50 49/23/50 55/1/50

