# WaveFront *.obj file (generated by CINEMA 4D)

mtllib ./towertips09.mtl

v 25.68899917602539 12.12643718719482 -28.78876876831055
v 19.1204948425293 21.21734619140625 -33.53987503051758
v 11.70485496520996 30.30825614929199 -36.8143310546875
v 3.71828699111938 39.39916610717773 -37.9423942565918
v -4.11205101013184 48.49007415771484 -36.45772933959961
v -10.86719989776611 57.58098220825195 -32.55562591552734
v -15.73231410980225 66.67189025878906 -26.73383712768555
v -18.08830642700195 75.76280212402344 -19.74918174743652
v -17.58769416809082 84.85370635986328 -12.54830360412598
v -14.20782566070557 93.94461822509766 -6.17788362503052
v -8.27627944946289 103.03553009033203 -1.68122053146362
v -0.46525889635086 112.12643432617188 0.01062589976937
v -27.79128837585449 12.12643718719482 -27.33658790588379
v -32.8812255859375 21.21734619140625 -20.96724510192871
v -36.52861785888672 30.30825614929199 -13.67559909820557
v -38.04583740234375 39.39916610717773 -5.70473289489746
v -36.92820358276367 48.49007415771484 2.23892259597778
v -33.32754898071289 57.58098220825195 9.22276496887207
v -27.7045841217041 66.67189025878906 14.40418434143066
v -20.78972053527832 75.76280212402344 17.12472534179688
v -13.51717662811279 84.85370635986328 16.9896183013916
v -6.93734264373779 93.94461822509766 13.92559432983398
v -2.11411762237549 103.03553009033203 8.21137809753418
v -0.01527791190892 112.12643432617188 0.47732126712799
v -26.33910751342773 12.12643718719482 26.14369964599609
v -20.30859756469727 21.21734619140625 31.03447532653809
v -13.38988590240479 30.30825614929199 34.5578727722168
v -5.80817556381226 39.39916610717773 36.05939102172852
v 1.76844882965088 48.49007415771484 35.05507659912109
v 8.45084190368652 57.58098220825195 31.68311309814453
v 13.43343734741211 66.67189025878906 26.3764533996582
v 16.08418655395508 75.76280212402344 19.82613945007324
v 16.0207462310791 84.85370635986328 12.91910076141357
v 13.16613483428955 93.94461822509766 6.65511131286621
v 7.77848100662231 103.03553009033203 2.0492160320282
v 0.45141744613647 112.12643432617188 0.02734028548002
v 27.14118003845215 12.12643718719482 24.69151878356934
v 31.69312477111816 21.21734619140625 18.46184539794922
v 34.84358596801758 30.30825614929199 11.41914081573486
v 35.95594787597656 39.39916610717773 3.82172966003418
v 34.58460235595703 48.49007415771484 -3.64157724380493
v 30.91119003295898 57.58098220825195 -10.09527683258057
v 25.40570640563965 66.67189025878906 -14.76156711578369
v 18.78560066223145 75.76280212402344 -17.04776763916016
v 11.95022869110107 84.85370635986328 -16.61882209777832
v 5.89565181732178 93.94461822509766 -13.44836616516113
v 1.61631870269775 103.03553009033203 -7.84338235855103
v 0.00143647403456 112.12643432617188 -0.43935507535934
v -29.71728515625 0.05611798912287 31.05370712280273
v -29.71728515625 5.05611801147461 31.05370712280273
v 29.78271484375 0.05611798912287 31.05370712280273
v 29.78271484375 5.05611801147461 31.05370712280273
v 29.78271484375 0.05611798912287 -28.44629287719727
v 29.78271484375 5.05611801147461 -28.44629287719727
v -29.71728515625 0.05611798912287 -28.44629287719727
v -29.71728515625 5.05611801147461 -28.44629287719727
# 56 vertices

vn -0.13197861611843 0.00253691268153 -0.99124932289124
vn -0.23518213629723 0.00261420756578 -0.9719477891922
vn -0.43345844745636 0.01578615605831 -0.90103530883789
vn -0.61294555664062 0.05243335291743 -0.78838348388672
vn -0.76286089420319 0.10108552873135 -0.63861179351807
vn -0.87443745136261 0.15374095737934 -0.46013358235359
vn -0.94128304719925 0.21167109906673 -0.26302400231361
vn -0.95962053537369 0.27499929070473 -0.05919289961457
vn -0.92947947978973 0.34191447496414 0.13842812180519
vn -0.85575747489929 0.40827992558479 0.31778392195702
vn -0.74787980318069 0.468376070261 0.47042497992516
vn -0.68386912345886 0.49393877387047 0.53697997331619
vn -0.99125611782074 -0.02077438309789 0.13030637800694
vn -0.97212898731232 -0.02082865871489 0.23351956903934
vn -0.90183615684509 -0.00818988494575 0.4320005774498
vn -0.7902238368988 0.02697792463005 0.61222422122955
vn -0.64146602153778 0.0737394914031 0.76359927654266
vn -0.46348541975021 0.12458062916994 0.87730324268341
vn -0.26606285572052 0.18101264536381 0.94680780172348
vn -0.06085454300046 0.24358823895454 0.96796768903732
vn 0.13922657072544 0.3110209107399 0.94014996290207
vn 0.32168319821358 0.37951415777206 0.86746120452881
vn 0.47718527913094 0.44320058822632 0.75885933637619
vn 0.54483956098557 0.4708751142025 0.69384902715683
vn 0.13161991536617 -0.00255195121281 0.99129694700241
vn 0.23483002185822 -0.00250921864063 0.97203320264816
vn 0.43308329582214 0.0092783998698 0.90130615234375
vn 0.61269181966782 0.04202461242676 0.78920382261276
vn 0.76334637403488 0.085439696908 0.64031428098679
vn 0.87659972906113 0.13245283067226 0.46263289451599
vn 0.94623744487762 0.18442051112652 0.26575136184692
vn 0.96839970350266 0.24183891713619 0.06095861643553
vn 0.94255220890045 0.30359220504761 -0.13938124477863
vn 0.87249702215195 0.36633536219597 -0.32333782315254
vn 0.76643604040146 0.42474427819252 -0.481838285923
vn 0.70249491930008 0.45004552602768 -0.55132561922073
vn 0.99086648225784 0.02078942395747 -0.13323456048965
vn 0.97143214941025 0.02096385508776 -0.23638978600502
vn 0.90012621879578 0.03329044952989 -0.4343553185463
vn 0.78706181049347 0.06752909719944 -0.61316674947739
vn 0.6372584104538 0.11284303665161 -0.7623438835144
vn 0.45917907357216 0.16166937351227 -0.87350881099701
vn 0.26268553733826 0.21514213085175 -0.94059032201767
vn 0.05929194763303 0.27336639165878 -0.96008086204529
vn -0.13862930238247 0.33474585413933 -0.93205535411835
vn -0.31955608725548 0.39559862017632 -0.86103755235672
vn -0.4752342402935 0.45067515969276 -0.75567471981049
vn -0.54362207651138 0.47397214174271 -0.6926943063736
vn 0 1 0
vn 0 -1 0
vn 0 0 1
vn 1 0 0
vn 0 0 -1
vn -1 0 0
# 54 normals

vt 0 0 0
vt 0 0.09090912342072 0
vt 1 0.09090912342072 0
vt 1 0 0
vt 0 0.18181824684143 0
vt 1 0.18181824684143 0
vt 0 0.27272725105286 0
vt 1 0.27272725105286 0
vt 0 0.36363637447357 0
vt 1 0.36363637447357 0
vt 0 0.45454549789429 0
vt 1 0.45454549789429 0
vt 0 0.54545456171036 0
vt 1 0.54545456171036 0
vt 0 0.63636362552643 0
vt 1 0.63636362552643 0
vt 0 0.72727274894714 0
vt 1 0.72727274894714 0
vt 0 0.81818181276321 0
vt 1 0.81818181276321 0
vt 0 0.90909087657928 0
vt 1 0.90909087657928 0
vt 0 1 0
vt 1 1 0
# 24 texture coordinates

o Null.7
usemtl default
f 13/4/1 14/3/2 2/2/2 1/1/1
f 14/3/2 15/6/3 3/5/3 2/2/2
f 15/6/3 16/8/4 4/7/4 3/5/3
f 16/8/4 17/10/5 5/9/5 4/7/4
f 17/10/5 18/12/6 6/11/6 5/9/5
f 18/12/6 19/14/7 7/13/7 6/11/6
f 19/14/7 20/16/8 8/15/8 7/13/7
f 20/16/8 21/18/9 9/17/9 8/15/8
f 21/18/9 22/20/10 10/19/10 9/17/9
f 22/20/10 23/22/11 11/21/11 10/19/10
f 23/22/11 24/24/12 12/23/12 11/21/11
f 25/4/13 26/3/14 14/2/14 13/1/13
f 26/3/14 27/6/15 15/5/15 14/2/14
f 27/6/15 28/8/16 16/7/16 15/5/15
f 28/8/16 29/10/17 17/9/17 16/7/16
f 29/10/17 30/12/18 18/11/18 17/9/17
f 30/12/18 31/14/19 19/13/19 18/11/18
f 31/14/19 32/16/20 20/15/20 19/13/19
f 32/16/20 33/18/21 21/17/21 20/15/20
f 33/18/21 34/20/22 22/19/22 21/17/21
f 34/20/22 35/22/23 23/21/23 22/19/22
f 35/22/23 36/24/24 24/23/24 23/21/23
f 37/4/25 38/3/26 26/2/26 25/1/25
f 38/3/26 39/6/27 27/5/27 26/2/26
f 39/6/27 40/8/28 28/7/28 27/5/27
f 40/8/28 41/10/29 29/9/29 28/7/28
f 41/10/29 42/12/30 30/11/30 29/9/29
f 42/12/30 43/14/31 31/13/31 30/11/30
f 43/14/31 44/16/32 32/15/32 31/13/31
f 44/16/32 45/18/33 33/17/33 32/15/32
f 45/18/33 46/20/34 34/19/34 33/17/33
f 46/20/34 47/22/35 35/21/35 34/19/34
f 47/22/35 48/24/36 36/23/36 35/21/35
f 1/4/37 2/3/38 38/2/38 37/1/37
f 2/3/38 3/6/39 39/5/39 38/2/38
f 3/6/39 4/8/40 40/7/40 39/5/39
f 4/8/40 5/10/41 41/9/41 40/7/40
f 5/10/41 6/12/42 42/11/42 41/9/41
f 6/12/42 7/14/43 43/13/43 42/11/42
f 7/14/43 8/16/44 44/15/44 43/13/43
f 8/16/44 9/18/45 45/17/45 44/15/44
f 9/18/45 10/20/46 46/19/46 45/17/45
f 10/20/46 11/22/47 47/21/47 46/19/46
f 11/22/47 12/24/48 48/23/48 47/21/47
f 24/4/49 36/24/49 48/23/49 12/1/49
f 25/4/50 13/24/50 1/23/50 37/1/50
f 51/4/51 52/24/51 50/23/51 49/1/51
f 53/4/52 54/24/52 52/23/52 51/1/52
f 55/4/53 56/24/53 54/23/53 53/1/53
f 49/4/54 50/24/54 56/23/54 55/1/54
f 52/4/49 54/24/49 56/23/49 50/1/49
f 53/4/50 51/24/50 49/23/50 55/1/50

