# WaveFront *.obj file (generated by CINEMA 4D)

mtllib ./tower08.mtl

v -29.6225528717041 -0.00508543476462 31.04696846008301
v -23.72437477111816 9.08582401275635 32.94792175292969
v -17.0117015838623 18.17673301696777 32.68547439575195
v -11.06127166748047 27.26764106750488 31.69673538208008
v -5.81429815292358 36.35855102539062 29.96151542663574
v -1.32254946231842 45.44945907592773 27.72723579406738
v 2.42965316772461 54.54037094116211 25.16184043884277
v 5.46921396255493 63.63127899169922 22.34064483642578
v 7.77757930755615 72.72219085693359 19.25837707519531
v 9.24206256866455 81.81309509277344 15.86376667022705
v 9.62229537963867 90.90400695800781 12.11337566375732
v 8.53784465789795 99.99491119384766 8.03943538665771
v 29.8774471282959 -0.00508543476462 31.04696846008301
v 32.0179557800293 9.08582401275635 25.24329566955566
v 32.03347015380859 18.17673301696777 18.53232574462891
v 31.29368782043457 27.26764106750488 12.55135154724121
v 29.78043556213379 36.35855102539062 7.24034023284912
v 27.73827171325684 45.44945907592773 2.66156816482544
v 25.33524703979492 54.54037094116211 -1.19346153736114
v 22.64739990234375 63.63127899169922 -4.34855031967163
v 19.6683406829834 72.72219085693359 -6.78578805923462
v 16.3416576385498 81.81309509277344 -8.39556503295898
v 12.61315441131592 90.90400695800781 -8.94084072113037
v 8.4979305267334 99.99491119384766 -8.04191589355469
v 29.8774471282959 -0.00508543476462 -28.45303153991699
v 24.31332778930664 9.08582401275635 -30.49903297424316
v 17.88031768798828 18.17673301696777 -30.51284599304199
v 12.1483039855957 27.26764106750488 -29.80360794067383
v 7.05925989151001 36.35855102539062 -28.35439300537109
v 2.67260384559631 45.44945907592773 -26.39925193786621
v -1.02005386352539 54.54037094116211 -24.09905624389648
v -4.04179430007935 63.63127899169922 -21.52673721313477
v -6.37582445144653 72.72219085693359 -18.67654991149902
v -7.91767311096191 81.81309509277344 -15.49516010284424
v -8.44106197357178 90.90400695800781 -11.93170070648193
v -7.58342123031616 99.99491119384766 -8.00200176239014
v -29.6225528717041 -0.00508543476462 -28.45303153991699
v -31.42900085449219 9.08582401275635 -22.79440689086914
v -31.16485214233398 18.17673301696777 -16.35969543457031
v -30.20665550231934 27.26764106750488 -10.65822410583496
v -28.53547477722168 36.35855102539062 -5.63321828842163
v -26.38821601867676 45.44945907592773 -1.33358514308929
v -23.9256477355957 54.54037094116211 2.25624537467957
v -21.21998023986816 63.63127899169922 5.16245746612549
v -18.26658630371094 72.72219085693359 7.36761569976807
v -15.01726913452148 81.81309509277344 8.76417064666748
v -11.43192195892334 90.90400695800781 9.12251663208008
v -7.54350709915161 99.99491119384766 8.07934951782227
# 48 vertices

vn 0.07231733202934 0.1400770097971 0.98749613761902
vn 0.14114455878735 0.18397721648216 0.97274386882782
vn 0.27697226405144 0.21606640517712 0.9362701177597
vn 0.40850809216499 0.20046423375607 0.89046913385391
vn 0.53237497806549 0.1888283342123 0.82517921924591
vn 0.64620500802994 0.17409563064575 0.74304091930389
vn 0.74714118242264 0.16103966534138 0.64486145973206
vn 0.8322981595993 0.15492978692055 0.5322373509407
vn 0.89885556697845 0.16126127541065 0.4074966609478
vn 0.94378304481506 0.18547174334526 0.27363082766533
vn 0.96327072381973 0.23237735033035 0.13457465171814
vn 0.9631415605545 0.26124513149261 0.06410385668278
vn 0.9902331829071 0.11946555227041 -0.07187672704458
vn 0.97668379545212 0.16176798939705 -0.14113759994507
vn 0.94104880094528 0.19318442046642 -0.27768144011497
vn 0.89448666572571 0.17895543575287 -0.40971758961678
vn 0.82854932546616 0.16854305565357 -0.53394687175751
vn 0.74571460485458 0.15514509379864 -0.64795035123825
vn 0.6469241976738 0.14334477484226 -0.74896019697189
vn 0.53383767604828 0.13820026814938 -0.83421701192856
vn 0.40877529978752 0.14500072598457 -0.90104246139526
vn 0.27465564012527 0.16902856528759 -0.94656938314438
vn 0.13526450097561 0.21508046984673 -0.96718347072601
vn 0.06458138674498 0.24341931939125 -0.96776872873306
vn -0.07207768410444 0.12950332462788 -0.98895585536957
vn -0.14116314053535 0.16955271363258 -0.97535884380341
vn -0.27749705314636 0.19867543876171 -0.93995928764343
vn -0.4094286262989 0.18408699333668 -0.89357715845108
vn -0.53359150886536 0.17317482829094 -0.82782280445099
vn -0.64755952358246 0.15947636961937 -0.74514019489288
vn -0.74855995178223 0.14735643565655 -0.64648592472076
vn -0.83384138345718 0.14160150289536 -0.53353309631348
vn -0.9007608294487 0.14719052612782 -0.40861329436302
vn -0.94656151533127 0.16908299922943 -0.2746494114399
vn -0.96788960695267 0.21180687844753 -0.1353794336319
vn -0.96905827522278 0.23818981647491 -0.06474311649799
vn -0.98601168394089 0.15008455514908 0.07249508798122
vn -0.97124618291855 0.19173042476177 0.14113914966583
vn -0.9350597858429 0.22153030335903 0.27674442529678
vn -0.88946044445038 0.20557089149952 0.40816754102707
vn -0.82437562942505 0.19343852996826 0.53196465969086
vn -0.74240672588348 0.1784081608057 0.64575749635696
vn -0.6443789601326 0.16503542661667 0.74668538570404
vn -0.53190368413925 0.15831863880157 0.83187359571457
vn -0.40732073783875 0.16344486176968 0.8985407948494
vn -0.2736237347126 0.18553428351879 0.94377279281616
vn -0.1346942782402 0.22915057837963 0.96402668952942
vn -0.0642703473568 0.25609225034714 0.96451342105865
vn 0 1 0
vn 0 -1 0
# 50 normals

vt 0 0 0
vt 0 0.09090912342072 0
vt 1 0.09090912342072 0
vt 1 0 0
vt 0 0.18181824684143 0
vt 1 0.18181824684143 0
vt 0 0.27272725105286 0
vt 1 0.27272725105286 0
vt 0 0.36363637447357 0
vt 1 0.36363637447357 0
vt 0 0.45454549789429 0
vt 1 0.45454549789429 0
vt 0 0.54545456171036 0
vt 1 0.54545456171036 0
vt 0 0.63636362552643 0
vt 1 0.63636362552643 0
vt 0 0.72727274894714 0
vt 1 0.72727274894714 0
vt 0 0.81818181276321 0
vt 1 0.81818181276321 0
vt 0 0.90909087657928 0
vt 1 0.90909087657928 0
vt 0 1 0
vt 1 1 0
# 24 texture coordinates

o Null
usemtl default
f 13/4/1 14/3/2 2/2/2 1/1/1
f 14/3/2 15/6/3 3/5/3 2/2/2
f 15/6/3 16/8/4 4/7/4 3/5/3
f 16/8/4 17/10/5 5/9/5 4/7/4
f 17/10/5 18/12/6 6/11/6 5/9/5
f 18/12/6 19/14/7 7/13/7 6/11/6
f 19/14/7 20/16/8 8/15/8 7/13/7
f 20/16/8 21/18/9 9/17/9 8/15/8
f 21/18/9 22/20/10 10/19/10 9/17/9
f 22/20/10 23/22/11 11/21/11 10/19/10
f 23/22/11 24/24/12 12/23/12 11/21/11
f 25/4/13 26/3/14 14/2/14 13/1/13
f 26/3/14 27/6/15 15/5/15 14/2/14
f 27/6/15 28/8/16 16/7/16 15/5/15
f 28/8/16 29/10/17 17/9/17 16/7/16
f 29/10/17 30/12/18 18/11/18 17/9/17
f 30/12/18 31/14/19 19/13/19 18/11/18
f 31/14/19 32/16/20 20/15/20 19/13/19
f 32/16/20 33/18/21 21/17/21 20/15/20
f 33/18/21 34/20/22 22/19/22 21/17/21
f 34/20/22 35/22/23 23/21/23 22/19/22
f 35/22/23 36/24/24 24/23/24 23/21/23
f 37/4/25 38/3/26 26/2/26 25/1/25
f 38/3/26 39/6/27 27/5/27 26/2/26
f 39/6/27 40/8/28 28/7/28 27/5/27
f 40/8/28 41/10/29 29/9/29 28/7/28
f 41/10/29 42/12/30 30/11/30 29/9/29
f 42/12/30 43/14/31 31/13/31 30/11/30
f 43/14/31 44/16/32 32/15/32 31/13/31
f 44/16/32 45/18/33 33/17/33 32/15/32
f 45/18/33 46/20/34 34/19/34 33/17/33
f 46/20/34 47/22/35 35/21/35 34/19/34
f 47/22/35 48/24/36 36/23/36 35/21/35
f 1/4/37 2/3/38 38/2/38 37/1/37
f 2/3/38 3/6/39 39/5/39 38/2/38
f 3/6/39 4/8/40 40/7/40 39/5/39
f 4/8/40 5/10/41 41/9/41 40/7/40
f 5/10/41 6/12/42 42/11/42 41/9/41
f 6/12/42 7/14/43 43/13/43 42/11/42
f 7/14/43 8/16/44 44/15/44 43/13/43
f 8/16/44 9/18/45 45/17/45 44/15/44
f 9/18/45 10/20/46 46/19/46 45/17/45
f 10/20/46 11/22/47 47/21/47 46/19/46
f 11/22/47 12/24/48 48/23/48 47/21/47
f 24/4/49 36/24/49 48/23/49 12/1/49
f 25/4/50 13/24/50 1/23/50 37/1/50

