# WaveFront *.obj file (generated by CINEMA 4D)

mtllib ./towertips07.mtl

v -29.97209930419922 12.12643718719482 31.29696846008301
v -29.97209930419922 21.21734619140625 31.29696846008301
v -29.87691688537598 30.30825614929199 31.1934700012207
v -29.01915168762207 39.39916610717773 30.28261947631836
v -26.55335235595703 48.49007415771484 27.69578742980957
v -22.83745765686035 57.58098220825195 23.80673217773438
v -18.3017520904541 66.67189025878906 19.06476020812988
v -13.42245864868164 75.76280212402344 13.96714496612549
v -8.69532680511475 84.85370635986328 9.03154754638672
v -4.60921573638916 93.94461822509766 4.76843881607056
v -1.61968874931335 103.03553009033203 1.65351808071136
v -0.12259744107723 112.12643432617188 0.1001356318593
v 30.02790069580078 12.12643718719482 31.29696846008301
v 30.02790069580078 21.21734619140625 31.29696846008301
v 29.92851829528809 30.30825614929199 31.1934700012207
v 29.05431365966797 39.39916610717773 30.28261947631836
v 26.57214546203613 48.49007415771484 27.69578742980957
v 22.84061813354492 57.58098220825195 23.80673217773438
v 18.29081916809082 66.67189025878906 19.06476020812988
v 13.39985752105713 75.76280212402344 13.96714496612549
v 8.66440391540527 84.85370635986328 9.03154754638672
v 4.57423067092896 93.94461822509766 4.76843881607056
v 1.58574688434601 103.03553009033203 1.65351808071136
v 0.09554196149111 112.12643432617188 0.1001356318593
v 30.02790069580078 12.12643718719482 -28.70303153991699
v 30.02790069580078 21.21734619140625 -28.70303153991699
v 29.92851829528809 30.30825614929199 -28.61196708679199
v 29.05431365966797 39.39916610717773 -27.79084587097168
v 26.57214546203613 48.49007415771484 -25.42971038818359
v 22.84061813354492 57.58098220825195 -21.87134170532227
v 18.29081916809082 66.67189025878906 -17.52780914306641
v 13.39985752105713 75.76280212402344 -12.85517120361328
v 8.66440391540527 84.85370635986328 -8.3281831741333
v 4.57423067092896 93.94461822509766 -4.41500759124756
v 1.58574688434601 103.03553009033203 -1.551917552948
v 0.09554196149111 112.12643432617188 -0.11800377070904
v -29.97209930419922 12.12643718719482 -28.70303153991699
v -29.97209930419922 21.21734619140625 -28.70303153991699
v -29.87691688537598 30.30825614929199 -28.61196708679199
v -29.01915168762207 39.39916610717773 -27.79084587097168
v -26.55335235595703 48.49007415771484 -25.42971038818359
v -22.83745765686035 57.58098220825195 -21.87134170532227
v -18.3017520904541 66.67189025878906 -17.52780914306641
v -13.42245864868164 75.76280212402344 -12.85517120361328
v -8.69532680511475 84.85370635986328 -8.3281831741333
v -4.60921573638916 93.94461822509766 -4.41500759124756
v -1.61968874931335 103.03553009033203 -1.551917552948
v -0.12259744107723 112.12643432617188 -0.11800377070904
v -29.72209930419922 0.05611798912287 31.04696846008301
v -29.72209930419922 5.05611801147461 31.04696846008301
v 29.77790069580078 0.05611798912287 31.04696846008301
v 29.77790069580078 5.05611801147461 31.04696846008301
v 29.77790069580078 0.05611798912287 -28.45303153991699
v 29.77790069580078 5.05611801147461 -28.45303153991699
v -29.72209930419922 0.05611798912287 -28.45303153991699
v -29.72209930419922 5.05611801147461 -28.45303153991699
# 56 vertices

vn 0.70763099193573 0 0.70658218860626
vn 0.70761948823929 0.00569206941873 0.70657074451447
vn 0.70653659105301 0.05559355020523 0.70548951625824
vn 0.69509065151215 0.18742734193802 0.69406044483185
vn 0.66694974899292 0.33417576551437 0.66596138477325
vn 0.63947057723999 0.42821249365807 0.63852286338806
vn 0.62238341569901 0.47584137320518 0.62146109342575
vn 0.61956775188446 0.48312360048294 0.61864960193634
vn 0.63155990839005 0.45104947686195 0.63062387704849
vn 0.65601742267609 0.37490937113762 0.65504515171051
vn 0.68569004535675 0.24708504974842 0.68467378616333
vn 0.69752132892609 0.1684308797121 0.69648760557175
vn 0.70658224821091 0 -0.70763093233109
vn 0.70657169818878 0.00546568073332 -0.70762038230896
vn 0.70557504892349 0.0533742159605 -0.7066223025322
vn 0.69501352310181 0.18021479249001 -0.69604510068893
vn 0.66890877485275 0.32216915488243 -0.66990160942078
vn 0.64320886135101 0.41392704844475 -0.64416354894638
vn 0.62712305784225 0.46072232723236 -0.62805384397507
vn 0.6244660615921 0.46789515018463 -0.62539291381836
vn 0.63577610254288 0.43632194399834 -0.63671964406967
vn 0.658715903759 0.36179786920547 -0.65969359874725
vn 0.68632304668427 0.23774254322052 -0.68734204769135
vn 0.69727599620819 0.16176354885101 -0.69831132888794
vn -0.70763093233109 0 -0.70658218860626
vn -0.70762211084366 0.00500843534246 -0.70657336711884
vn -0.70674496889114 0.05002689361572 -0.70569747686386
vn -0.69717806577682 0.17124624550343 -0.69614470005035
vn -0.67311930656433 0.30848443508148 -0.67212182283401
vn -0.64915084838867 0.39806336164474 -0.64818876981735
vn -0.63399624824524 0.44417124986649 -0.633056640625
vn -0.63141351938248 0.45145839452744 -0.63047778606415
vn -0.64195305109024 0.42072936892509 -0.64100164175034
vn -0.66331273317337 0.34833252429962 -0.66232967376709
vn -0.68887144327164 0.22873094677925 -0.68785053491592
vn -0.69898933172226 0.15580430626869 -0.69795340299606
vn -0.70658218860626 0 0.70763093233109
vn -0.70657253265381 0.00523485522717 0.70762121677399
vn -0.70561707019806 0.05224884673953 0.70666438341141
vn -0.69523334503174 0.17850852012634 0.69626522064209
vn -0.66926628351212 0.32067826390266 0.67025977373123
vn -0.64360499382019 0.41269195079803 0.64456027746201
vn -0.62748670578003 0.45972952246666 0.62841796875
vn -0.62474954128265 0.4671365916729 0.62567675113678
vn -0.63594430685043 0.43583065271378 0.63688814640045
vn -0.65875017642975 0.36167284846306 0.65972793102264
vn -0.68625259399414 0.23815110325813 0.68727105855942
vn -0.69719171524048 0.16249141097069 0.69822645187378
vn 0 1 0
vn 0 -1 0
vn 0.70763093233109 0 0.70658218860626
vn 0.70658218860626 0 -0.70763093233109
# 52 normals

vt 0 0 0
vt 0 0.09090912342072 0
vt 1 0.09090912342072 0
vt 1 0 0
vt 0 0.18181824684143 0
vt 1 0.18181824684143 0
vt 0 0.27272725105286 0
vt 1 0.27272725105286 0
vt 0 0.36363637447357 0
vt 1 0.36363637447357 0
vt 0 0.45454549789429 0
vt 1 0.45454549789429 0
vt 0 0.54545456171036 0
vt 1 0.54545456171036 0
vt 0 0.63636362552643 0
vt 1 0.63636362552643 0
vt 0 0.72727274894714 0
vt 1 0.72727274894714 0
vt 0 0.81818181276321 0
vt 1 0.81818181276321 0
vt 0 0.90909087657928 0
vt 1 0.90909087657928 0
vt 0 1 0
vt 1 1 0
# 24 texture coordinates

o shape01.1
usemtl default
f 13/4/1 14/3/2 2/2/2 1/1/1
f 14/3/2 15/6/3 3/5/3 2/2/2
f 15/6/3 16/8/4 4/7/4 3/5/3
f 16/8/4 17/10/5 5/9/5 4/7/4
f 17/10/5 18/12/6 6/11/6 5/9/5
f 18/12/6 19/14/7 7/13/7 6/11/6
f 19/14/7 20/16/8 8/15/8 7/13/7
f 20/16/8 21/18/9 9/17/9 8/15/8
f 21/18/9 22/20/10 10/19/10 9/17/9
f 22/20/10 23/22/11 11/21/11 10/19/10
f 23/22/11 24/24/12 12/23/12 11/21/11
f 25/4/13 26/3/14 14/2/14 13/1/13
f 26/3/14 27/6/15 15/5/15 14/2/14
f 27/6/15 28/8/16 16/7/16 15/5/15
f 28/8/16 29/10/17 17/9/17 16/7/16
f 29/10/17 30/12/18 18/11/18 17/9/17
f 30/12/18 31/14/19 19/13/19 18/11/18
f 31/14/19 32/16/20 20/15/20 19/13/19
f 32/16/20 33/18/21 21/17/21 20/15/20
f 33/18/21 34/20/22 22/19/22 21/17/21
f 34/20/22 35/22/23 23/21/23 22/19/22
f 35/22/23 36/24/24 24/23/24 23/21/23
f 37/4/25 38/3/26 26/2/26 25/1/25
f 38/3/26 39/6/27 27/5/27 26/2/26
f 39/6/27 40/8/28 28/7/28 27/5/27
f 40/8/28 41/10/29 29/9/29 28/7/28
f 41/10/29 42/12/30 30/11/30 29/9/29
f 42/12/30 43/14/31 31/13/31 30/11/30
f 43/14/31 44/16/32 32/15/32 31/13/31
f 44/16/32 45/18/33 33/17/33 32/15/32
f 45/18/33 46/20/34 34/19/34 33/17/33
f 46/20/34 47/22/35 35/21/35 34/19/34
f 47/22/35 48/24/36 36/23/36 35/21/35
f 1/4/37 2/3/38 38/2/38 37/1/37
f 2/3/38 3/6/39 39/5/39 38/2/38
f 3/6/39 4/8/40 40/7/40 39/5/39
f 4/8/40 5/10/41 41/9/41 40/7/40
f 5/10/41 6/12/42 42/11/42 41/9/41
f 6/12/42 7/14/43 43/13/43 42/11/42
f 7/14/43 8/16/44 44/15/44 43/13/43
f 8/16/44 9/18/45 45/17/45 44/15/44
f 9/18/45 10/20/46 46/19/46 45/17/45
f 10/20/46 11/22/47 47/21/47 46/19/46
f 11/22/47 12/24/48 48/23/48 47/21/47
f 24/4/49 36/24/49 48/23/49 12/1/49
f 25/4/50 13/24/50 1/23/50 37/1/50
f 51/4/51 52/24/51 50/23/51 49/1/51
f 53/4/52 54/24/52 52/23/52 51/1/52
f 55/4/25 56/24/25 54/23/25 53/1/25
f 49/4/37 50/24/37 56/23/37 55/1/37
f 52/4/49 54/24/49 56/23/49 50/1/49
f 53/4/50 51/24/50 49/23/50 55/1/50

