<?xml version="1.0" standalone="no"?>
<!DOCTYPE svg PUBLIC "-//W3C//DTD SVG 20010904//EN"
 "http://www.w3.org/TR/2001/REC-SVG-20010904/DTD/svg10.dtd">
<svg version="1.0" xmlns="http://www.w3.org/2000/svg"
 width="340.000000pt" height="340.000000pt" viewBox="0 0 340.000000 340.000000"
 preserveAspectRatio="xMidYMid meet">
<metadata>
Created by potrace 1.11, written by Peter Selinger 2001-2013
</metadata>
<g transform="translate(0.000000,340.000000) scale(0.100000,-0.100000)"
fill="#000000" stroke="none">
<path d="M1483 3252 c-29 -2 -53 -6 -54 -10 -1 -8 -4 -21 -24 -102 -14 -55
-32 -138 -40 -175 -3 -16 -8 -55 -11 -85 -2 -30 -7 -75 -10 -100 -3 -25 -7
-88 -9 -140 -10 -236 -23 -471 -29 -500 -3 -17 -25 -98 -31 -118 -3 -7 -5 -16
-6 -20 -1 -4 -10 -32 -21 -62 -10 -30 -20 -65 -23 -79 -2 -13 -10 -28 -17 -33
-7 -4 -10 -8 -6 -8 7 0 -31 -131 -43 -146 -5 -6 -6 -13 -4 -16 3 -3 -3 -28
-14 -56 -11 -27 -17 -53 -14 -56 4 -3 1 -6 -5 -6 -7 0 -11 -3 -10 -7 3 -10
-33 -134 -43 -148 -4 -5 -10 -26 -14 -45 -4 -19 -11 -41 -15 -50 -7 -12 -30
-86 -35 -110 -2 -9 -26 -85 -32 -100 -4 -8 -7 -18 -8 -22 -2 -5 -3 -9 -4 -10
-2 -2 -4 -14 -7 -28 -2 -14 -8 -34 -13 -45 -5 -11 -13 -33 -17 -50 -4 -16 -9
-36 -11 -42 -1 -7 -4 -19 -6 -25 -1 -7 -6 -19 -11 -26 -4 -7 -5 -16 -2 -19 3
-3 0 -15 -6 -27 -6 -11 -13 -32 -14 -45 -2 -13 -6 -31 -10 -40 -8 -18 -10 -24
-17 -61 -3 -14 -12 -46 -20 -72 -8 -26 -14 -64 -13 -83 1 -19 -1 -35 -4 -35
-3 0 -5 -31 -5 -70 0 -38 -3 -70 -7 -70 -3 0 -5 -8 -4 -17 3 -16 34 -34 48
-27 4 3 9 0 13 -6 3 -5 17 -10 31 -10 14 0 33 -4 43 -10 10 -5 33 -12 52 -15
19 -3 68 -15 109 -26 41 -12 81 -21 88 -22 6 0 12 -3 12 -7 0 -3 10 -6 23 -7
12 -1 31 -4 42 -7 11 -3 47 -13 80 -21 33 -9 69 -18 80 -21 27 -8 125 -11 125
-4 0 3 22 5 50 4 27 0 50 2 50 5 0 3 19 7 43 7 108 4 352 30 368 40 5 3 9 0 9
-6 0 -6 5 -8 13 -3 6 4 28 8 47 10 19 1 58 4 85 7 121 12 192 19 225 21 19 2
35 4 35 5 0 2 44 6 103 9 23 1 24 3 18 59 -3 31 -9 75 -12 97 -3 22 -7 58 -9
80 -2 22 -4 40 -5 40 -1 0 -3 9 -5 20 -4 20 -23 86 -33 115 -3 8 -6 20 -7 25
-6 26 -67 232 -72 245 -3 8 -8 21 -10 28 -1 6 -5 18 -6 25 -2 6 -7 20 -11 29
-4 9 -8 22 -10 30 -1 7 -5 19 -9 26 -5 6 -5 17 -2 22 3 6 1 10 -5 10 -6 0 -10
6 -8 13 1 6 -3 22 -10 34 -7 13 -10 23 -6 23 3 0 2 6 -3 13 -10 11 -22 49 -30
92 -2 10 -7 22 -11 25 -4 3 -8 15 -10 28 -2 13 -11 40 -20 60 -8 20 -15 41
-14 45 1 4 -4 20 -12 36 -9 16 -17 39 -20 52 -7 37 -40 124 -49 127 -4 2 -5 8
-1 13 5 9 -15 76 -38 124 -5 12 -10 28 -12 38 -1 9 -5 20 -9 23 -4 4 -7 18 -7
30 0 13 -4 26 -10 29 -5 3 -10 19 -10 36 0 16 -4 29 -8 29 -5 0 -9 6 -10 13
-1 23 -11 56 -22 76 -6 12 -8 21 -4 21 3 0 1 7 -6 15 -7 8 -10 15 -6 15 3 0 0
12 -6 28 -7 16 -13 94 -14 197 -2 194 -11 399 -20 465 -3 25 -7 59 -9 75 -1
17 -4 30 -5 30 -1 0 -3 18 -5 40 -3 46 -11 87 -24 132 -5 17 -7 34 -4 37 3 3
1 11 -5 19 -6 7 -13 28 -15 47 -2 19 -7 42 -10 50 -3 8 -7 24 -9 34 -3 17 -14
19 -103 23 -196 6 -291 8 -342 5z"/>
</g>
</svg>
